StickNoBills-sinhala-0.ufo
<glyph name="numbersign" format="1">
  <advance width="750"/>
  <unicode hex="0023"/>
  <outline>
    <contour>
      <point x="40" y="218" type="line"/>
      <point x="47" y="256" type="line"/>
      <point x="226" y="256" type="line"/>
      <point x="259" y="446" type="line"/>
      <point x="73" y="446" type="line"/>
      <point x="79" y="484" type="line"/>
      <point x="265" y="484" type="line"/>
      <point x="300" y="682" type="line"/>
      <point x="340" y="682" type="line"/>
      <point x="305" y="484" type="line"/>
      <point x="492" y="484" type="line"/>
      <point x="526" y="682" type="line"/>
      <point x="566" y="682" type="line"/>
      <point x="532" y="484" type="line"/>
      <point x="710" y="484" type="line"/>
      <point x="704" y="445" type="line"/>
      <point x="525" y="446" type="line"/>
      <point x="492" y="255" type="line"/>
      <point x="675" y="255" type="line"/>
      <point x="670" y="217" type="line"/>
      <point x="485" y="218" type="line"/>
      <point x="451" y="22" type="line"/>
      <point x="411" y="22" type="line"/>
      <point x="445" y="218" type="line"/>
      <point x="259" y="218" type="line"/>
      <point x="224" y="22" type="line"/>
      <point x="184" y="22" type="line"/>
      <point x="219" y="218" type="line"/>
    </contour>
    <contour>
      <point x="266" y="256" type="line"/>
      <point x="452" y="255" type="line"/>
      <point x="485" y="446" type="line"/>
      <point x="299" y="446" type="line"/>
    </contour>
  </outline>
</glyph>
<glyph name="dollar" format="1">
  <advance width="521"/>
  <unicode hex="0024"/>
  <outline>
    <contour>
      <point x="40" y="158" type="curve"/>
      <point x="77" y="171" type="line"/>
      <point x="103" y="42"/>
      <point x="228" y="35"/>
      <point x="228" y="35" type="curve"/>
      <point x="228" y="-47" type="line"/>
      <point x="198" y="-47" type="line"/>
      <point x="198" y="-1" type="line"/>
      <point x="101" y="15"/>
      <point x="41" y="108"/>
    </contour>
    <contour>
      <point x="48" y="514" type="curve" smooth="yes"/>
      <point x="48" y="628"/>
      <point x="138" y="682"/>
      <point x="198" y="696" type="curve"/>
      <point x="198" y="750" type="line"/>
      <point x="228" y="750" type="line"/>
      <point x="228" y="662" type="line"/>
      <point x="196" y="662"/>
      <point x="88" y="622"/>
      <point x="88" y="508" type="curve" smooth="yes"/>
      <point x="88" y="434"/>
      <point x="156" y="405"/>
      <point x="228" y="389" type="curve"/>
      <point x="228" y="348" type="line"/>
      <point x="205" y="352"/>
      <point x="185" y="355"/>
      <point x="171" y="360" type="curve" smooth="yes"/>
      <point x="97" y="388"/>
      <point x="48" y="421"/>
    </contour>
    <contour>
      <point x="273" y="-47" type="line"/>
      <point x="273" y="35" type="line"/>
      <point x="326" y="35"/>
      <point x="441" y="100"/>
      <point x="441" y="209" type="curve" smooth="yes"/>
      <point x="441" y="300"/>
      <point x="352" y="326"/>
      <point x="273" y="340" type="curve"/>
      <point x="273" y="380" type="line"/>
      <point x="303" y="375"/>
      <point x="332" y="371"/>
      <point x="353" y="365" type="curve" smooth="yes"/>
      <point x="422" y="346"/>
      <point x="481" y="311"/>
      <point x="481" y="203" type="curve" smooth="yes"/>
      <point x="481" y="108"/>
      <point x="404" y="15"/>
      <point x="303" y="-1" type="curve"/>
      <point x="303" y="-47" type="line"/>
    </contour>
    <contour>
      <point x="273" y="662" type="curve"/>
      <point x="273" y="750" type="line"/>
      <point x="303" y="750" type="line"/>
      <point x="303" y="697" type="line"/>
      <point x="394" y="680"/>
      <point x="446" y="591"/>
      <point x="453" y="553" type="curve"/>
      <point x="415" y="541" type="line"/>
      <point x="383" y="658"/>
      <point x="273" y="662"/>
    </contour>
  </outline>
</glyph>
<glyph name="parenleft" format="1">
  <advance width="212"/>
  <unicode hex="0028"/>
  <outline>
    <contour>
      <point x="40" y="189" type="curve"/>
      <point x="40" y="510" type="line"/>
      <point x="40" y="652"/>
      <point x="111" y="676"/>
      <point x="171" y="705" type="curve"/>
      <point x="171" y="682" type="line"/>
      <point x="132" y="659"/>
      <point x="80" y="642"/>
      <point x="80" y="522" type="curve" smooth="yes"/>
      <point x="81" y="241" type="line" smooth="yes"/>
      <point x="81" y="239"/>
      <point x="81" y="190"/>
      <point x="81" y="188" type="curve" smooth="yes"/>
      <point x="81" y="78"/>
      <point x="137" y="40"/>
      <point x="172" y="18" type="curve"/>
      <point x="172" y="-5" type="line"/>
      <point x="63" y="53"/>
      <point x="40" y="99"/>
    </contour>
  </outline>
</glyph>
<glyph name="hyphen" format="1">
  <advance width="396"/>
  <unicode hex="002D"/>
  <outline>
    <contour>
      <point x="40" y="275" type="line"/>
      <point x="40" y="313" type="line"/>
      <point x="356" y="313" type="line"/>
      <point x="356" y="275" type="line"/>
    </contour>
  </outline>
</glyph>
<glyph name="slash" format="1">
  <advance width="295"/>
  <unicode hex="002F"/>
  <outline>
    <contour>
      <point x="40" y="-13" type="line"/>
      <point x="215" y="726" type="line"/>
      <point x="255" y="726" type="line"/>
      <point x="81" y="-13" type="line"/>
    </contour>
  </outline>
</glyph>
<glyph name="one" format="1">
  <advance width="160"/>
  <unicode hex="0031"/>
  <outline>
    <contour>
      <point x="40" y="624" type="line"/>
      <point x="40" y="667" type="line"/>
      <point x="80" y="700" type="line"/>
      <point x="120" y="700" type="line"/>
      <point x="120" y="0" type="line"/>
      <point x="80" y="0" type="line"/>
      <point x="80" y="624" type="line"/>
    </contour>
  </outline>
</glyph>
<glyph name="L" format="1">
  <advance width="436"/>
  <unicode hex="004C"/>
  <outline>
    <contour>
      <point x="40" y="0" type="line"/>
      <point x="40" y="700" type="line"/>
      <point x="80" y="700" type="line"/>
      <point x="80" y="38" type="line"/>
      <point x="416" y="38" type="line"/>
      <point x="416" y="0" type="line"/>
    </contour>
  </outline>
</glyph>
<glyph name="R" format="1">
  <advance width="509"/>
  <unicode hex="0052"/>
  <outline>
    <contour>
      <point x="42" y="0" type="line"/>
      <point x="42" y="700" type="line"/>
      <point x="82" y="700" type="line"/>
      <point x="82" y="0" type="line"/>
    </contour>
    <contour>
      <point x="127" y="318" type="line"/>
      <point x="127" y="357" type="line"/>
      <point x="287" y="357" type="line" smooth="yes"/>
      <point x="376" y="357"/>
      <point x="413" y="401"/>
      <point x="413" y="508" type="curve" smooth="yes"/>
      <point x="413" y="615"/>
      <point x="372" y="667"/>
      <point x="261" y="667" type="curve" smooth="yes"/>
      <point x="127" y="667" type="line"/>
      <point x="127" y="700" type="line"/>
      <point x="283" y="700" type="line"/>
      <point x="371" y="695"/>
      <point x="454" y="660"/>
      <point x="454" y="505" type="curve" smooth="yes"/>
      <point x="454" y="409"/>
      <point x="426" y="360"/>
      <point x="385" y="337" type="curve"/>
      <point x="422" y="321"/>
      <point x="457" y="287"/>
      <point x="462" y="217" type="curve" smooth="yes"/>
      <point x="479" y="0" type="line"/>
      <point x="439" y="0" type="line"/>
      <point x="424" y="178" type="line" smooth="yes"/>
      <point x="416" y="265"/>
      <point x="398" y="322"/>
      <point x="298" y="318" type="curve"/>
    </contour>
  </outline>
</glyph>
<glyph name="underscore" format="1">
  <advance width="530"/>
  <unicode hex="005F"/>
  <outline>
    <contour>
      <point x="40" y="-167" type="line"/>
      <point x="490" y="-167" type="line"/>
      <point x="490" y="-205" type="line"/>
      <point x="40" y="-205" type="line"/>
    </contour>
  </outline>
</glyph>
<glyph name="q" format="1">
  <advance width="438"/>
  <unicode hex="0071"/>
  <outline>
    <contour>
      <point x="203" y="0" type="line" smooth="yes"/>
      <point x="90" y="0"/>
      <point x="38" y="86"/>
      <point x="38" y="139" type="curve"/>
      <point x="38" y="375" type="line" smooth="yes"/>
      <point x="38" y="427"/>
      <point x="85" y="516"/>
      <point x="203" y="516" type="curve" smooth="yes"/>
      <point x="311" y="516" type="line"/>
      <point x="311" y="478" type="line"/>
      <point x="203" y="478" type="line" smooth="yes"/>
      <point x="117" y="478"/>
      <point x="78" y="413"/>
      <point x="78" y="372" type="curve"/>
      <point x="78" y="143" type="line" smooth="yes"/>
      <point x="78" y="92"/>
      <point x="123" y="38"/>
      <point x="201" y="38" type="curve" smooth="yes"/>
      <point x="304" y="38" type="line"/>
      <point x="304" y="0" type="line"/>
    </contour>
    <contour>
      <point x="356" y="-182" type="line"/>
      <point x="356" y="516" type="line"/>
      <point x="396" y="516" type="line"/>
      <point x="396" y="-182" type="line"/>
    </contour>
  </outline>
</glyph>
<glyph name="exclamdown" format="1">
  <advance width="138"/>
  <unicode hex="00A1"/>
  <outline>
    <contour>
      <point x="20" y="489" type="curve" smooth="yes"/>
      <point x="20" y="504"/>
      <point x="33" y="516"/>
      <point x="48" y="516" type="curve" smooth="yes"/>
      <point x="63" y="516"/>
      <point x="75" y="504"/>
      <point x="75" y="489" type="curve" smooth="yes"/>
      <point x="75" y="474"/>
      <point x="63" y="462"/>
      <point x="48" y="462" type="curve" smooth="yes"/>
      <point x="33" y="462"/>
      <point x="20" y="474"/>
    </contour>
    <contour>
      <point x="28" y="-94" type="line"/>
      <point x="28" y="422" type="line"/>
      <point x="68" y="422" type="line"/>
      <point x="68" y="-94" type="line"/>
    </contour>
  </outline>
</glyph>
<glyph name="threequarters" format="1">
  <advance width="624"/>
  <unicode hex="00BE"/>
  <outline>
    <contour>
      <point x="155" y="345" type="curve"/>
      <point x="155" y="375" type="line"/>
      <point x="202" y="375"/>
      <point x="224" y="403"/>
      <point x="224" y="443" type="curve" smooth="yes"/>
      <point x="224" y="452"/>
      <point x="222" y="509"/>
      <point x="153" y="509" type="curve"/>
      <point x="143" y="509" type="line"/>
      <point x="143" y="536" type="line"/>
      <point x="153" y="536" type="line"/>
      <point x="222" y="536"/>
      <point x="224" y="593"/>
      <point x="224" y="602" type="curve" smooth="yes"/>
      <point x="224" y="642"/>
      <point x="202" y="670"/>
      <point x="155" y="670" type="curve"/>
      <point x="155" y="700" type="line"/>
      <point x="220" y="700"/>
      <point x="254" y="655"/>
      <point x="254" y="603" type="curve" smooth="yes"/>
      <point x="254" y="570"/>
      <point x="245" y="543"/>
      <point x="214" y="523" type="curve"/>
      <point x="245" y="502"/>
      <point x="254" y="475"/>
      <point x="254" y="442" type="curve" smooth="yes"/>
      <point x="254" y="390"/>
      <point x="220" y="345"/>
    </contour>
    <contour>
      <point x="525" y="0" type="line"/>
      <point x="525" y="350" type="line"/>
      <point x="556" y="350" type="line"/>
      <point x="556" y="91" type="line"/>
      <point x="583" y="91" type="line"/>
      <point x="583" y="61" type="line"/>
      <point x="556" y="61" type="line"/>
      <point x="556" y="0" type="line"/>
    </contour>
    <contour>
      <point x="357" y="61" type="line"/>
      <point x="357" y="91" type="line"/>
      <point x="503" y="338" type="line"/>
      <point x="503" y="280" type="line"/>
      <point x="393" y="91" type="line"/>
      <point x="503" y="91" type="line"/>
      <point x="503" y="61" type="line"/>
    </contour>
    <contour>
      <point x="40" y="435" type="curve"/>
      <point x="69" y="442" type="line"/>
      <point x="77" y="375"/>
      <point x="128" y="375"/>
      <point x="128" y="375" type="curve" smooth="yes"/>
      <point x="128" y="345" type="line"/>
      <point x="75" y="350"/>
      <point x="44" y="393"/>
    </contour>
    <contour>
      <point x="40" y="610" type="line"/>
      <point x="44" y="652"/>
      <point x="75" y="696"/>
      <point x="128" y="700" type="curve"/>
      <point x="128" y="670" type="line" smooth="yes"/>
      <point x="128" y="670"/>
      <point x="77" y="670"/>
      <point x="69" y="603" type="curve"/>
    </contour>
    <contour>
      <point x="126" y="0" type="line"/>
      <point x="558" y="700" type="line"/>
      <point x="594" y="700" type="line"/>
      <point x="162" y="0" type="line"/>
    </contour>
  </outline>
</glyph>
<glyph name="ae" format="1">
  <advance width="435"/>
  <unicode hex="00E6"/>
  <outline>
    <contour>
      <point x="26" y="121" type="curve" smooth="yes"/>
      <point x="26" y="157" type="line" smooth="yes"/>
      <point x="26" y="317"/>
      <point x="343" y="288"/>
      <point x="343" y="363" type="curve" smooth="yes"/>
      <point x="343" y="382" type="line" smooth="yes"/>
      <point x="343" y="436"/>
      <point x="279" y="483"/>
      <point x="203" y="483" type="curve" smooth="yes"/>
      <point x="136" y="483"/>
      <point x="70" y="453"/>
      <point x="70" y="375" type="curve"/>
      <point x="33" y="389" type="line"/>
      <point x="32" y="478"/>
      <point x="121" y="520"/>
      <point x="205" y="520" type="curve" smooth="yes"/>
      <point x="274" y="520"/>
      <point x="333" y="494"/>
      <point x="365" y="438" type="curve"/>
      <point x="390" y="478"/>
      <point x="438" y="516"/>
      <point x="507" y="516" type="curve"/>
      <point x="507" y="478" type="line"/>
      <point x="435" y="478"/>
      <point x="384" y="414"/>
      <point x="384" y="359" type="curve" smooth="yes"/>
      <point x="384" y="334"/>
      <point x="384" y="310"/>
      <point x="384" y="285" type="curve"/>
      <point x="675" y="285" type="line"/>
      <point x="675" y="369" type="line" smooth="yes"/>
      <point x="675" y="428"/>
      <point x="613" y="480"/>
      <point x="552" y="480" type="curve"/>
      <point x="552" y="516" type="line"/>
      <point x="628" y="516"/>
      <point x="715" y="453"/>
      <point x="715" y="378" type="curve" smooth="yes"/>
      <point x="715" y="247" type="line"/>
      <point x="384" y="247" type="line"/>
      <point x="384" y="141" type="line" smooth="yes"/>
      <point x="384" y="82"/>
      <point x="460" y="36"/>
      <point x="532" y="36" type="curve" smooth="yes"/>
      <point x="603" y="36"/>
      <point x="662" y="75"/>
      <point x="679" y="133" type="curve"/>
      <point x="716" y="120" type="line"/>
      <point x="694" y="45"/>
      <point x="633" y="0"/>
      <point x="530" y="0" type="curve" smooth="yes"/>
      <point x="455" y="0"/>
      <point x="397" y="28"/>
      <point x="371" y="73" type="curve"/>
      <point x="340" y="19"/>
      <point x="290" y="0"/>
      <point x="227" y="1" type="curve"/>
      <point x="227" y="39" type="line"/>
      <point x="284" y="39"/>
      <point x="343" y="52"/>
      <point x="343" y="149" type="curve" smooth="yes"/>
      <point x="343" y="308" type="line"/>
      <point x="304" y="264"/>
      <point x="66" y="266"/>
      <point x="67" y="162" type="curve"/>
      <point x="67" y="142" type="line" smooth="yes"/>
      <point x="67" y="66"/>
      <point x="125" y="39"/>
      <point x="182" y="39" type="curve"/>
      <point x="182" y="1" type="line"/>
      <point x="85" y="1"/>
      <point x="26" y="64"/>
    </contour>
  </outline>
</glyph>
<glyph name="divide" format="1">
  <advance width="650"/>
  <unicode hex="00F7"/>
  <outline>
    <contour>
      <point x="100" y="273" type="line"/>
      <point x="100" y="311" type="line"/>
      <point x="550" y="311" type="line"/>
      <point x="550" y="273" type="line"/>
    </contour>
    <component base="period" xOffset="255" yOffset="376"/>
    <component base="period" xOffset="255" yOffset="139"/>
  </outline>
</glyph>
<glyph name="thorn" format="1">
  <advance width="422"/>
  <unicode hex="00FE"/>
  <outline>
    <contour>
      <point x="30" y="-182" type="line"/>
      <point x="30" y="700" type="line"/>
      <point x="70" y="700" type="line"/>
      <point x="70" y="-182" type="line"/>
    </contour>
    <contour>
      <point x="115" y="478" type="line"/>
      <point x="115" y="516" type="line"/>
      <point x="228" y="516" type="line" smooth="yes"/>
      <point x="335" y="516"/>
      <point x="396" y="431"/>
      <point x="396" y="375" type="curve" smooth="yes"/>
      <point x="396" y="139" type="line" smooth="yes"/>
      <point x="396" y="86"/>
      <point x="345" y="0"/>
      <point x="232" y="0" type="curve" smooth="yes"/>
      <point x="122" y="0" type="line"/>
      <point x="122" y="38" type="line"/>
      <point x="234" y="38" type="line" smooth="yes"/>
      <point x="294" y="38"/>
      <point x="356" y="76"/>
      <point x="356" y="158" type="curve" smooth="yes"/>
      <point x="356" y="364" type="line" smooth="yes"/>
      <point x="356" y="434"/>
      <point x="300" y="478"/>
      <point x="228" y="478" type="curve" smooth="yes"/>
    </contour>
  </outline>
</glyph>
<glyph name="tml_MatraU" format="1">
  <advance width="529"/>
  <unicode hex="0BC1"/>
  <outline>
    <contour>
      <point x="39" y="615" type="line"/>
      <point x="319" y="615" type="line" smooth="yes"/>
      <point x="416" y="615"/>
      <point x="448" y="584"/>
      <point x="448" y="529" type="curve" smooth="yes"/>
      <point x="448" y="511"/>
      <point x="429" y="457"/>
      <point x="374" y="457" type="curve" smooth="yes"/>
      <point x="315" y="457"/>
      <point x="298" y="510"/>
      <point x="298" y="530" type="curve" smooth="yes"/>
      <point x="258" y="530" type="line"/>
      <point x="258" y="480"/>
      <point x="300" y="417"/>
      <point x="369" y="417" type="curve" smooth="yes"/>
      <point x="381" y="417" type="line" smooth="yes"/>
      <point x="436" y="417"/>
      <point x="488" y="471"/>
      <point x="488" y="530" type="curve" smooth="yes"/>
      <point x="488" y="537" type="line" smooth="yes"/>
      <point x="488" y="604"/>
      <point x="438" y="655"/>
      <point x="323" y="655" type="curve" smooth="yes"/>
      <point x="39" y="655" type="line"/>
    </contour>
  </outline>
</glyph>
<glyph name="tml_Above" format="1">
  <advance width="1434"/>
  <unicode hex="0BF8"/>
  <outline>
    <contour>
      <point x="189" y="94" type="line"/>
      <point x="205" y="94"/>
      <point x="264" y="75"/>
      <point x="264" y="-6" type="curve" smooth="yes"/>
      <point x="264" y="-99"/>
      <point x="201" y="-108"/>
      <point x="189" y="-108" type="curve" smooth="yes"/>
      <point x="189" y="-148" type="line"/>
      <point x="259" y="-148"/>
      <point x="304" y="-82"/>
      <point x="304" y="-15" type="curve" smooth="yes"/>
      <point x="304" y="6" type="line" smooth="yes"/>
      <point x="304" y="62"/>
      <point x="254" y="134"/>
      <point x="189" y="134" type="curve" smooth="yes"/>
    </contour>
    <contour>
      <point x="40" y="7" type="curve" smooth="yes"/>
      <point x="40" y="-13" type="line" smooth="yes"/>
      <point x="40" y="-85"/>
      <point x="97" y="-148"/>
      <point x="157" y="-148" type="curve" smooth="yes"/>
      <point x="157" y="-108" type="line"/>
      <point x="143" y="-108"/>
      <point x="80" y="-88"/>
      <point x="80" y="-6" type="curve" smooth="yes"/>
      <point x="80" y="78"/>
      <point x="145" y="94"/>
      <point x="157" y="94" type="curve" smooth="yes"/>
      <point x="157" y="134" type="line"/>
      <point x="96" y="134"/>
      <point x="40" y="69"/>
    </contour>
    <contour>
      <point x="40" y="-5" type="line" smooth="yes"/>
      <point x="80" y="-6" type="line" smooth="yes"/>
      <point x="80" y="141" type="line" smooth="yes"/>
      <point x="80" y="239"/>
      <point x="140" y="319"/>
      <point x="303" y="319" type="curve" smooth="yes"/>
      <point x="454" y="319" type="line"/>
      <point x="454" y="359" type="line"/>
      <point x="303" y="359" type="line" smooth="yes"/>
      <point x="180" y="359"/>
      <point x="40" y="311"/>
      <point x="40" y="142" type="curve" smooth="yes"/>
    </contour>
    <component base="tml_Ssa" xOffset="262"/>
  </outline>
</glyph>
<glyph name="anusvara" format="1">
  <advance width="449"/>
  <unicode hex="0D82"/>
  <outline>
    <contour>
      <point x="249.334" y="45" type="line"/>
      <point x="249.334" y="85" type="line"/>
      <point x="358.889" y="85"/>
      <point x="378.668" y="150.602"/>
      <point x="378.668" y="248" type="curve" smooth="yes"/>
      <point x="378.668" y="311" type="line" smooth="yes"/>
      <point x="378.668" y="408.398"/>
      <point x="356.889" y="474"/>
      <point x="249.334" y="474" type="curve"/>
      <point x="249.334" y="514" type="line"/>
      <point x="270.405" y="514" type="line" smooth="yes"/>
      <point x="415.668" y="514"/>
      <point x="418.668" y="369.253"/>
      <point x="418.668" y="311" type="curve" smooth="yes"/>
      <point x="418.668" y="248" type="line" smooth="yes"/>
      <point x="418.668" y="189.747"/>
      <point x="415.668" y="45"/>
      <point x="270.405" y="45" type="curve" smooth="yes"/>
    </contour>
    <contour>
      <point x="178.263" y="45" type="line" smooth="yes"/>
      <point x="33" y="45"/>
      <point x="30" y="189.747"/>
      <point x="30" y="248" type="curve" smooth="yes"/>
      <point x="30" y="311" type="line" smooth="yes"/>
      <point x="30" y="369.253"/>
      <point x="33" y="514"/>
      <point x="178.263" y="514" type="curve" smooth="yes"/>
      <point x="199.334" y="514" type="line"/>
      <point x="199.334" y="474" type="line"/>
      <point x="91.7793" y="474"/>
      <point x="70" y="408.398"/>
      <point x="70" y="311" type="curve" smooth="yes"/>
      <point x="70" y="248" type="line" smooth="yes"/>
      <point x="70" y="150.602"/>
      <point x="89.7793" y="85"/>
      <point x="199.334" y="85" type="curve"/>
      <point x="199.334" y="45" type="line"/>
    </contour>
  </outline>
</glyph>
<glyph name="si_Os" format="1">
  <advance width="580"/>
  <unicode hex="0D94"/>
  <outline>
    <contour>
      <point x="171" y="0" type="curve" smooth="yes"/>
      <point x="88.1074" y="0"/>
      <point x="30" y="52"/>
      <point x="30" y="133" type="curve" smooth="yes"/>
      <point x="30" y="366" type="line" smooth="yes"/>
      <point x="30" y="440.626"/>
      <point x="86.4324" y="479.526"/>
      <point x="141.608" y="479.526" type="curve" smooth="yes"/>
      <point x="194.379" y="479.526"/>
      <point x="246" y="443.942"/>
      <point x="246" y="370" type="curve" smooth="yes"/>
      <point x="246" y="315" type="line" smooth="yes"/>
      <point x="246" y="288.714"/>
      <point x="266.711" y="275.607"/>
      <point x="287.442" y="275.607" type="curve" smooth="yes"/>
      <point x="308.211" y="275.607"/>
      <point x="329" y="288.763"/>
      <point x="329" y="315" type="curve" smooth="yes"/>
      <point x="329" y="469" type="line"/>
      <point x="369" y="469" type="line"/>
      <point x="369" y="310" type="line" smooth="yes"/>
      <point x="369" y="256.851"/>
      <point x="328.223" y="230.25"/>
      <point x="287.46" y="230.25" type="curve" smooth="yes"/>
      <point x="246.723" y="230.25"/>
      <point x="206" y="256.816"/>
      <point x="206" y="310" type="curve" smooth="yes"/>
      <point x="206" y="370" type="line" smooth="yes"/>
      <point x="206" y="415.574"/>
      <point x="173.002" y="438.819"/>
      <point x="139.756" y="438.819" type="curve" smooth="yes"/>
      <point x="106.006" y="438.819"/>
      <point x="72" y="414.865"/>
      <point x="72" y="366" type="curve" smooth="yes"/>
      <point x="72" y="139" type="line" smooth="yes"/>
      <point x="72" y="104"/>
      <point x="94.8457" y="40"/>
      <point x="171" y="40" type="curve" smooth="yes"/>
      <point x="246.154" y="40"/>
      <point x="269" y="104.059"/>
      <point x="269" y="139" type="curve" smooth="yes"/>
      <point x="269" y="192" type="line"/>
      <point x="311" y="192" type="line"/>
      <point x="311" y="139" type="line" smooth="yes"/>
      <point x="311" y="104.059"/>
      <point x="333.846" y="40"/>
      <point x="409" y="40" type="curve" smooth="yes"/>
      <point x="485.154" y="40"/>
      <point x="508" y="104.059"/>
      <point x="508" y="139" type="curve" smooth="yes"/>
      <point x="508" y="201" type="line"/>
      <point x="550" y="201" type="line"/>
      <point x="550" y="133" type="line" smooth="yes"/>
      <point x="550" y="52.25"/>
      <point x="491.893" y="0"/>
      <point x="409" y="0" type="curve" smooth="yes"/>
      <point x="356.595" y="0"/>
      <point x="313.931" y="21.3961"/>
      <point x="290" y="57.9649" type="curve"/>
      <point x="266.069" y="21.3961"/>
      <point x="223.405" y="3.55271e-15"/>
    </contour>
    <contour>
      <point x="508" y="201" type="line" smooth="yes"/>
      <point x="508" y="514" type="line" smooth="yes"/>
      <point x="508" y="668.135"/>
      <point x="434.978" y="715"/>
      <point x="314" y="715" type="curve"/>
      <point x="314" y="755" type="line"/>
      <point x="480.86" y="755"/>
      <point x="550" y="677.667"/>
      <point x="550" y="514" type="curve" smooth="yes"/>
      <point x="550" y="201" type="line" smooth="yes"/>
    </contour>
    <contour>
      <point x="74.375" y="553" type="curve"/>
      <point x="35.375" y="563" type="line"/>
      <point x="35.375" y="680.776"/>
      <point x="152.933" y="755"/>
      <point x="257" y="755" type="curve"/>
      <point x="257" y="715" type="line"/>
      <point x="164.405" y="715"/>
      <point x="74.375" y="651.181"/>
    </contour>
  </outline>
</glyph>
<glyph name="si_Ca" format="1">
  <advance width="590"/>
  <unicode hex="0DA0"/>
  <outline>
    <contour>
      <point x="279" y="0" type="line"/>
      <point x="136.137" y="0"/>
      <point x="72.8038" y="98.7086"/>
      <point x="72.8038" y="191.135" type="curve" smooth="yes"/>
      <point x="72.8038" y="235.86"/>
      <point x="87.6331" y="279.113"/>
      <point x="115.457" y="309" type="curve"/>
      <point x="30.0254" y="309" type="line"/>
      <point x="30" y="349" type="line"/>
      <point x="209" y="349" type="line"/>
      <point x="295" y="349" type="line"/>
      <point x="294.714" y="407.658"/>
      <point x="245.87" y="438.116"/>
      <point x="198.351" y="438.116" type="curve" smooth="yes"/>
      <point x="163.821" y="438.116"/>
      <point x="129.99" y="422.033"/>
      <point x="116" y="389" type="curve"/>
      <point x="77" y="399" type="line"/>
      <point x="90.7598" y="451.927"/>
      <point x="144.095" y="478.996"/>
      <point x="198.724" y="478.996" type="curve" smooth="yes"/>
      <point x="232.305" y="478.996"/>
      <point x="266.375" y="468.767"/>
      <point x="292.041" y="448.028" type="curve" smooth="yes"/>
      <point x="317.707" y="427.289"/>
      <point x="334.968" y="396.04"/>
      <point x="334.932" y="354" type="curve" smooth="yes"/>
      <point x="335" y="309" type="line"/>
      <point x="209" y="309" type="line" smooth="yes"/>
      <point x="149.782" y="309"/>
      <point x="114.737" y="252.398"/>
      <point x="114.737" y="191.123" type="curve" smooth="yes"/>
      <point x="114.737" y="118.816"/>
      <point x="163.536" y="40"/>
      <point x="279" y="40" type="curve"/>
    </contour>
    <contour>
      <point x="335" y="0" type="curve"/>
      <point x="335" y="40" type="line"/>
      <point x="448.056" y="40"/>
      <point x="519" y="95.2852"/>
      <point x="519" y="241" type="curve" smooth="yes"/>
      <point x="519" y="514" type="line" smooth="yes"/>
      <point x="519" y="661.715"/>
      <point x="448.056" y="715"/>
      <point x="335" y="715" type="curve"/>
      <point x="335" y="755" type="line"/>
      <point x="494.37" y="755"/>
      <point x="560" y="671.037"/>
      <point x="560" y="514" type="curve" smooth="yes"/>
      <point x="560" y="241" type="line" smooth="yes"/>
      <point x="560" y="83.9629"/>
      <point x="494.37" y="0"/>
    </contour>
    <contour>
      <point x="108.375" y="553" type="curve"/>
      <point x="69.375" y="563" type="line"/>
      <point x="69.375" y="673.921"/>
      <point x="182.923" y="755"/>
      <point x="279" y="755" type="curve"/>
      <point x="279" y="715" type="line"/>
      <point x="194.506" y="715"/>
      <point x="108.375" y="644.132"/>
    </contour>
  </outline>
</glyph>
<glyph name="si_Ndja" format="1">
  <advance width="765"/>
  <unicode hex="0DA6"/>
  <outline>
    <contour>
      <point x="94" y="-8" type="line"/>
      <point x="34.3584" y="69.1836"/>
      <point x="30" y="118.444"/>
      <point x="30" y="209" type="curve" smooth="yes"/>
      <point x="30" y="349" type="line" smooth="yes"/>
      <point x="30" y="477.44"/>
      <point x="89.9884" y="518.018"/>
      <point x="154.803" y="518.018" type="curve" smooth="yes"/>
      <point x="173.252" y="518.018"/>
      <point x="192.092" y="514.73"/>
      <point x="210.051" y="509.245" type="curve" smooth="yes"/>
      <point x="210" y="466" type="line"/>
      <point x="188.838" y="474.062"/>
      <point x="170.519" y="477.737"/>
      <point x="154.757" y="477.737" type="curve" smooth="yes"/>
      <point x="92.3135" y="477.737"/>
      <point x="70" y="420.062"/>
      <point x="70" y="349" type="curve" smooth="yes"/>
      <point x="70" y="209" type="line" smooth="yes"/>
      <point x="70" y="128.436"/>
      <point x="71.5576" y="84.5967"/>
      <point x="136" y="8" type="curve"/>
    </contour>
    <component base="si_Ja" xOffset="145"/>
  </outline>
</glyph>
<glyph name="si_Nna" format="1">
  <advance width="963"/>
  <unicode hex="0DAB"/>
  <outline>
    <contour>
      <point x="9.99902" y="5" type="line"/>
      <point x="48" y="82"/>
      <point x="110.746" y="84.625"/>
      <point x="140.294" y="84.625" type="curve" smooth="yes"/>
      <point x="218.58" y="84.625"/>
      <point x="256.148" y="40.6621"/>
      <point x="317.312" y="40.6621" type="curve" smooth="yes"/>
      <point x="359.779" y="40.6621"/>
      <point x="439" y="71.5"/>
      <point x="439" y="176" type="curve" smooth="yes"/>
      <point x="439" y="383" type="line" smooth="yes"/>
      <point x="439" y="511.834"/>
      <point x="363.322" y="566"/>
      <point x="268" y="566" type="curve" smooth="yes"/>
      <point x="114.17" y="566"/>
      <point x="96" y="434.254"/>
      <point x="96" y="398" type="curve" smooth="yes"/>
      <point x="96" y="365.455"/>
      <point x="105.839" y="232.5"/>
      <point x="257" y="232.5" type="curve" smooth="yes"/>
      <point x="277.513" y="232.5"/>
      <point x="287" y="232.5"/>
      <point x="303" y="232.5" type="curve"/>
      <point x="303" y="192.5" type="line"/>
      <point x="293" y="192.5"/>
      <point x="262.156" y="192.459"/>
      <point x="236.25" y="192.459" type="curve" smooth="yes"/>
      <point x="139.378" y="192.459"/>
      <point x="56" y="275.274"/>
      <point x="56" y="398" type="curve" smooth="yes"/>
      <point x="56" y="535"/>
      <point x="158" y="606"/>
      <point x="268" y="606" type="curve" smooth="yes"/>
      <point x="478.698" y="606"/>
      <point x="480.075" y="430.731"/>
      <point x="480.075" y="383" type="curve" smooth="yes"/>
      <point x="480.075" y="368.861"/>
      <point x="480" y="194.315"/>
      <point x="480" y="176" type="curve" smooth="yes"/>
      <point x="480" y="38.7334"/>
      <point x="374.319" y="0.199219"/>
      <point x="318.145" y="0.199219" type="curve" smooth="yes"/>
      <point x="246.229" y="0.199219"/>
      <point x="205.196" y="43.3574"/>
      <point x="140.294" y="43.3574" type="curve" smooth="yes"/>
      <point x="104.717" y="43.3574"/>
      <point x="66" y="34"/>
      <point x="49" y="-5" type="curve"/>
    </contour>
    <contour>
      <point x="680" y="241.5" type="line"/>
      <point x="680" y="432" type="line" smooth="yes"/>
      <point x="680" y="491.916"/>
      <point x="636.698" y="521.93"/>
      <point x="593.423" y="521.93" type="curve" smooth="yes"/>
      <point x="569.728" y="521.93"/>
      <point x="546.041" y="512.933"/>
      <point x="529.474" y="494.92" type="curve"/>
      <point x="509.655" y="534.323" type="line"/>
      <point x="532.965" y="554.529"/>
      <point x="563.184" y="564.625"/>
      <point x="593.41" y="564.625" type="curve" smooth="yes"/>
      <point x="634.845" y="564.625"/>
      <point x="676.292" y="545.653"/>
      <point x="699.971" y="507.745" type="curve"/>
      <point x="723.606" y="545.677"/>
      <point x="765.002" y="564.625"/>
      <point x="806.41" y="564.625" type="curve" smooth="yes"/>
      <point x="869.69" y="564.625"/>
      <point x="933" y="520.373"/>
      <point x="933" y="432" type="curve" smooth="yes"/>
      <point x="933" y="241.5" type="line"/>
      <point x="893" y="241.5" type="line"/>
      <point x="893" y="432" type="line" smooth="yes"/>
      <point x="893" y="491.916"/>
      <point x="849.699" y="521.93"/>
      <point x="806.423" y="521.93" type="curve" smooth="yes"/>
      <point x="763.199" y="521.93"/>
      <point x="720" y="491.987"/>
      <point x="720" y="432" type="curve" smooth="yes"/>
      <point x="720" y="241.5" type="line"/>
    </contour>
    <contour>
      <point x="535" y="160" type="curve" smooth="yes"/>
      <point x="535" y="192.5" type="line"/>
      <point x="575" y="192.5" type="line"/>
      <point x="575" y="160" type="line" smooth="yes"/>
      <point x="575" y="76.0066"/>
      <point x="654.628" y="33.789"/>
      <point x="734.192" y="33.789" type="curve" smooth="yes"/>
      <point x="813.628" y="33.789"/>
      <point x="893" y="75.8715"/>
      <point x="893" y="160" type="curve" smooth="yes"/>
      <point x="893" y="192.5" type="line"/>
      <point x="933" y="192.5" type="line"/>
      <point x="933" y="160" type="line" smooth="yes"/>
      <point x="933" y="48.9479"/>
      <point x="833.657" y="-6.60447"/>
      <point x="734.236" y="-6.60447" type="curve" smooth="yes"/>
      <point x="634.657" y="-6.60447"/>
      <point x="535" y="49.1233"/>
    </contour>
    <contour>
      <point x="362.277" y="581" type="line"/>
      <point x="515.999" y="784" type="line"/>
      <point x="562" y="772" type="line"/>
      <point x="390.999" y="546" type="line"/>
    </contour>
  </outline>
</glyph>
<glyph name="si_Da" format="1">
  <advance width="532"/>
  <unicode hex="0DAF"/>
  <outline>
    <contour>
      <point x="361.022" y="-203.964" type="curve" smooth="yes"/>
      <point x="276.453" y="-203.964"/>
      <point x="193" y="-151.097"/>
      <point x="193" y="-45" type="curve"/>
      <point x="233" y="-45" type="line"/>
      <point x="233" y="-120.985"/>
      <point x="299.06" y="-164.281"/>
      <point x="365.197" y="-164.281" type="curve" smooth="yes"/>
      <point x="420.846" y="-164.281"/>
      <point x="476.55" y="-133.627"/>
      <point x="493" y="-66" type="curve"/>
      <point x="532" y="-76" type="line"/>
      <point x="514.009" y="-161.221"/>
      <point x="437.064" y="-203.964"/>
    </contour>
    <contour>
      <point x="30" y="199" type="curve" smooth="yes"/>
      <point x="30" y="335.29"/>
      <point x="125.045" y="402"/>
      <point x="256" y="402" type="curve" smooth="yes"/>
      <point x="392" y="402" type="line"/>
      <point x="392" y="493.372"/>
      <point x="320.287" y="537.564"/>
      <point x="242.646" y="537.564" type="curve" smooth="yes"/>
      <point x="181.683" y="537.564"/>
      <point x="123.614" y="504.852"/>
      <point x="107" y="443" type="curve"/>
      <point x="68" y="456" type="line"/>
      <point x="89.4072" y="536.278"/>
      <point x="163.421" y="579.363"/>
      <point x="240.706" y="579.363" type="curve" smooth="yes"/>
      <point x="339.016" y="579.363"/>
      <point x="432" y="518.503"/>
      <point x="432" y="389" type="curve" smooth="yes"/>
      <point x="432" y="362" type="line"/>
      <point x="246" y="362" type="line" smooth="yes"/>
      <point x="130.019" y="362"/>
      <point x="71.624" y="293.457"/>
      <point x="71.624" y="199" type="curve" smooth="yes"/>
      <point x="71.624" y="108.484"/>
      <point x="133.124" y="40"/>
      <point x="257" y="40" type="curve"/>
      <point x="296" y="40" type="line"/>
      <point x="367" y="40"/>
      <point x="426.998" y="74.5439"/>
      <point x="461" y="148" type="curve"/>
      <point x="498" y="138" type="line"/>
      <point x="456.009" y="22.3045"/>
      <point x="353" y="0"/>
      <point x="296" y="0" type="curve"/>
      <point x="257" y="0" type="line" smooth="yes"/>
      <point x="137" y="0"/>
      <point x="30" y="60.3916"/>
    </contour>
  </outline>
</glyph>
<glyph name="si_Mba" format="1">
  <advance width="583"/>
  <unicode hex="0DB9"/>
  <outline>
    <contour>
      <point x="185" y="-11" type="curve" smooth="yes"/>
      <point x="89.8105" y="-11"/>
      <point x="30" y="65"/>
      <point x="30" y="167" type="curve" smooth="yes"/>
      <point x="30" y="366" type="line" smooth="yes"/>
      <point x="30" y="440.626"/>
      <point x="86.4324" y="479.526"/>
      <point x="141.608" y="479.526" type="curve" smooth="yes"/>
      <point x="194.379" y="479.526"/>
      <point x="246" y="443.942"/>
      <point x="246" y="370" type="curve" smooth="yes"/>
      <point x="246" y="315" type="line" smooth="yes"/>
      <point x="246" y="288.714"/>
      <point x="266.711" y="275.607"/>
      <point x="287.442" y="275.607" type="curve" smooth="yes"/>
      <point x="308.211" y="275.607"/>
      <point x="329" y="288.763"/>
      <point x="329" y="315" type="curve" smooth="yes"/>
      <point x="329" y="469" type="line"/>
      <point x="369" y="469" type="line"/>
      <point x="369" y="310" type="line" smooth="yes"/>
      <point x="369" y="256.851"/>
      <point x="328.223" y="230.25"/>
      <point x="287.46" y="230.25" type="curve" smooth="yes"/>
      <point x="246.723" y="230.25"/>
      <point x="206" y="256.816"/>
      <point x="206" y="310" type="curve" smooth="yes"/>
      <point x="206" y="370" type="line" smooth="yes"/>
      <point x="206" y="415.574"/>
      <point x="172.756" y="438.819"/>
      <point x="139.261" y="438.819" type="curve" smooth="yes"/>
      <point x="105.259" y="438.819"/>
      <point x="71" y="414.865"/>
      <point x="71" y="366" type="curve" smooth="yes"/>
      <point x="71" y="167" type="line" smooth="yes"/>
      <point x="71" y="102"/>
      <point x="113.086" y="29"/>
      <point x="185" y="29" type="curve" smooth="yes"/>
      <point x="215.878" y="29"/>
      <point x="222.906" y="42.0168"/>
      <point x="222.906" y="68.9291" type="curve" smooth="yes"/>
      <point x="222.906" y="99.6431"/>
      <point x="190.408" y="204"/>
      <point x="272" y="204" type="curve" smooth="yes"/>
      <point x="311" y="204" type="line" smooth="yes"/>
      <point x="394.493" y="204"/>
      <point x="360.094" y="99.7061"/>
      <point x="360.094" y="68.9291" type="curve" smooth="yes"/>
      <point x="360.094" y="42.0168"/>
      <point x="367.122" y="29"/>
      <point x="398" y="29" type="curve" smooth="yes"/>
      <point x="469.914" y="29"/>
      <point x="513" y="102.17"/>
      <point x="513" y="167" type="curve" smooth="yes"/>
      <point x="513" y="514" type="line" smooth="yes"/>
      <point x="513" y="661.715"/>
      <point x="425.056" y="715"/>
      <point x="312" y="715" type="curve"/>
      <point x="312" y="755" type="line"/>
      <point x="471.37" y="755"/>
      <point x="553" y="671.037"/>
      <point x="553" y="514" type="curve" smooth="yes"/>
      <point x="553" y="167" type="line" smooth="yes"/>
      <point x="553" y="65"/>
      <point x="493.189" y="-11"/>
      <point x="398" y="-11" type="curve" smooth="yes"/>
      <point x="342.85" y="-11"/>
      <point x="320.641" y="17.2227"/>
      <point x="320.641" y="57.807" type="curve" smooth="yes"/>
      <point x="320.641" y="77.8003"/>
      <point x="328.018" y="119.288"/>
      <point x="328.018" y="138.174" type="curve" smooth="yes"/>
      <point x="328.018" y="170.923"/>
      <point x="309.204" y="171.282"/>
      <point x="290.673" y="171.282" type="curve" smooth="yes"/>
      <point x="272.693" y="171.282"/>
      <point x="254.98" y="169.588"/>
      <point x="254.98" y="138.313" type="curve" smooth="yes"/>
      <point x="254.98" y="119.327"/>
      <point x="262.359" y="77.8003"/>
      <point x="262.359" y="57.807" type="curve" smooth="yes"/>
      <point x="262.359" y="17.2227"/>
      <point x="240.15" y="-11"/>
    </contour>
    <contour>
      <point x="74.375" y="553" type="curve"/>
      <point x="35.375" y="563" type="line"/>
      <point x="35.375" y="680.776"/>
      <point x="152.933" y="755"/>
      <point x="257" y="755" type="curve"/>
      <point x="257" y="715" type="line"/>
      <point x="164.405" y="715"/>
      <point x="74.375" y="651.181"/>
    </contour>
  </outline>
</glyph>
<glyph name="si_Ya" format="1">
  <advance width="630"/>
  <unicode hex="0DBA"/>
  <outline>
    <contour>
      <point x="30" y="140" type="curve" smooth="yes"/>
      <point x="30" y="192" type="line"/>
      <point x="70" y="192" type="line"/>
      <point x="70" y="141" type="line" smooth="yes"/>
      <point x="70" y="74.3125"/>
      <point x="118.737" y="40"/>
      <point x="182" y="40" type="curve" smooth="yes"/>
      <point x="246.263" y="40"/>
      <point x="295" y="74.3125"/>
      <point x="295" y="141" type="curve" smooth="yes"/>
      <point x="295" y="192" type="line"/>
      <point x="335" y="192" type="line"/>
      <point x="335" y="141" type="line" smooth="yes"/>
      <point x="335" y="74.3125"/>
      <point x="383.737" y="40"/>
      <point x="448" y="40" type="curve" smooth="yes"/>
      <point x="511.263" y="40"/>
      <point x="560" y="74.3125"/>
      <point x="560" y="141" type="curve" smooth="yes"/>
      <point x="560" y="192" type="line"/>
      <point x="600" y="192" type="line"/>
      <point x="600" y="140" type="line" smooth="yes"/>
      <point x="600" y="55.5283"/>
      <point x="532.327" y="0"/>
      <point x="448" y="0" type="curve" smooth="yes"/>
      <point x="390.604" y="0"/>
      <point x="341.197" y="25.1246"/>
      <point x="315" y="67.2825" type="curve"/>
      <point x="288.803" y="25.1246"/>
      <point x="239.396" y="0"/>
      <point x="182" y="0" type="curve" smooth="yes"/>
      <point x="97.6729" y="0"/>
      <point x="30" y="55.5283"/>
    </contour>
    <contour>
      <point x="295" y="362" type="curve"/>
      <point x="295.049" y="415" type="line" smooth="yes"/>
      <point x="295.001" y="539.449"/>
      <point x="393.022" y="564"/>
      <point x="444" y="564" type="curve" smooth="yes"/>
      <point x="507.881" y="564"/>
      <point x="568.293" y="541.871"/>
      <point x="594" y="477" type="curve"/>
      <point x="555" y="464" type="line"/>
      <point x="541.527" y="500.315"/>
      <point x="506.579" y="524"/>
      <point x="444" y="524" type="curve" smooth="yes"/>
      <point x="357.585" y="524"/>
      <point x="335" y="480.059"/>
      <point x="335" y="402" type="curve"/>
      <point x="479" y="402" type="line" smooth="yes"/>
      <point x="590" y="402"/>
      <point x="600" y="346.857"/>
      <point x="600" y="298" type="curve" smooth="yes"/>
      <point x="600" y="242" type="line"/>
      <point x="560" y="242" type="line"/>
      <point x="560" y="298" type="line" smooth="yes"/>
      <point x="560" y="359.795"/>
      <point x="522.092" y="362.013"/>
      <point x="487.86" y="362.013" type="curve" smooth="yes"/>
      <point x="485.211" y="362.013"/>
      <point x="482.585" y="362"/>
    </contour>
    <contour>
      <point x="30" y="242" type="line"/>
      <point x="30" y="340" type="line" smooth="yes"/>
      <point x="30" y="493.265"/>
      <point x="132.283" y="563"/>
      <point x="248" y="563" type="curve" smooth="yes"/>
      <point x="265" y="563" type="line"/>
      <point x="265" y="523" type="line"/>
      <point x="246" y="523" type="line" smooth="yes"/>
      <point x="133.205" y="523"/>
      <point x="70" y="450.938"/>
      <point x="70" y="341" type="curve" smooth="yes"/>
      <point x="70" y="242" type="line"/>
    </contour>
  </outline>
</glyph>
<glyph name="si_Va" format="1">
  <advance width="551"/>
  <unicode hex="0DC0"/>
  <outline>
    <contour>
      <point x="240" y="0" type="line"/>
      <point x="120.896" y="0"/>
      <point x="33" y="85.7334"/>
      <point x="33" y="181" type="curve" smooth="yes"/>
      <point x="33" y="230.761"/>
      <point x="44.2471" y="268.244"/>
      <point x="70" y="296" type="curve" smooth="yes"/>
      <point x="112.613" y="341.929"/>
      <point x="179.439" y="349"/>
      <point x="274" y="349" type="curve"/>
      <point x="273.714" y="407.658"/>
      <point x="224.87" y="438.116"/>
      <point x="177.351" y="438.116" type="curve" smooth="yes"/>
      <point x="142.821" y="438.116"/>
      <point x="108.99" y="422.033"/>
      <point x="95" y="389" type="curve"/>
      <point x="56" y="399" type="line"/>
      <point x="69.7441" y="451.867"/>
      <point x="122.961" y="478.84"/>
      <point x="177.516" y="478.84" type="curve" smooth="yes"/>
      <point x="244.727" y="478.84"/>
      <point x="313.969" y="437.9"/>
      <point x="313.932" y="354" type="curve" smooth="yes"/>
      <point x="314" y="309" type="line"/>
      <point x="265" y="309" type="line" smooth="yes"/>
      <point x="127.373" y="309"/>
      <point x="73" y="285.762"/>
      <point x="73" y="181" type="curve" smooth="yes"/>
      <point x="73" y="111.89"/>
      <point x="132.708" y="40"/>
      <point x="240" y="40" type="curve"/>
    </contour>
    <contour>
      <point x="296" y="0" type="curve"/>
      <point x="296" y="40" type="line"/>
      <point x="409.056" y="40"/>
      <point x="480" y="95.2852"/>
      <point x="480" y="241" type="curve" smooth="yes"/>
      <point x="480" y="514" type="line" smooth="yes"/>
      <point x="480" y="661.715"/>
      <point x="409.056" y="715"/>
      <point x="296" y="715" type="curve"/>
      <point x="296" y="755" type="line"/>
      <point x="455.37" y="755"/>
      <point x="521" y="671.037"/>
      <point x="521" y="514" type="curve" smooth="yes"/>
      <point x="521" y="241" type="line" smooth="yes"/>
      <point x="521" y="83.9629"/>
      <point x="455.37" y="0"/>
    </contour>
    <contour>
      <point x="30.375" y="563" type="line"/>
      <point x="30.375" y="673.921"/>
      <point x="143.923" y="755"/>
      <point x="240" y="755" type="curve"/>
      <point x="240" y="715" type="line"/>
      <point x="155.506" y="715"/>
      <point x="69.375" y="644.132"/>
      <point x="69.375" y="553" type="curve"/>
    </contour>
  </outline>
</glyph>
<glyph name="si_MatraIi" format="1">
  <advance width="0"/>
  <unicode hex="0DD3"/>
  <outline>
    <contour>
      <point x="-151.04" y="573.56" type="curve" smooth="yes"/>
      <point x="-200.96" y="573.56"/>
      <point x="-241.28" y="613.88"/>
      <point x="-241.28" y="663.8" type="curve" smooth="yes"/>
      <point x="-241.28" y="713.72"/>
      <point x="-200.96" y="754.04"/>
      <point x="-151.04" y="754.04" type="curve" smooth="yes"/>
      <point x="-101.12" y="754.04"/>
      <point x="-60.7998" y="713.72"/>
      <point x="-60.7998" y="663.8" type="curve" smooth="yes"/>
      <point x="-60.7998" y="613.88"/>
      <point x="-101.12" y="573.56"/>
    </contour>
    <contour>
      <point x="-580" y="602" type="line"/>
      <point x="-580" y="630" type="line"/>
      <point x="-580" y="723"/>
      <point x="-504.259" y="789"/>
      <point x="-404" y="789" type="curve"/>
      <point x="-223" y="789" type="line"/>
      <point x="-137.778" y="789"/>
      <point x="-60.8262" y="759.785"/>
      <point x="-60.7998" y="663.8" type="curve"/>
      <point x="-106" y="663" type="line"/>
      <point x="-106" y="741"/>
      <point x="-192.217" y="749"/>
      <point x="-239" y="749" type="curve"/>
      <point x="-388" y="749" type="line"/>
      <point x="-530.857" y="749"/>
      <point x="-540" y="654.112"/>
      <point x="-540" y="602" type="curve"/>
    </contour>
  </outline>
</glyph>
<glyph name="emdash" format="1">
  <advance width="906"/>
  <unicode hex="2014"/>
  <outline>
    <contour>
      <point x="26" y="274" type="line"/>
      <point x="26" y="312" type="line"/>
      <point x="880" y="312" type="line"/>
      <point x="880" y="274" type="line"/>
    </contour>
  </outline>
</glyph>
<glyph name="uni2206" format="1">
  <advance width="476"/>
  <unicode hex="2206"/>
  <outline>
    <contour>
      <point x="30" y="0" type="line"/>
      <point x="196" y="615" type="line"/>
      <point x="204" y="615" type="line"/>
      <point x="217" y="554" type="line"/>
      <point x="79" y="40" type="line"/>
      <point x="391" y="40" type="line"/>
      <point x="214" y="706" type="line"/>
      <point x="252" y="706" type="line"/>
      <point x="446" y="0" type="line"/>
    </contour>
  </outline>
</glyph>
<glyph name="infinity" format="1">
  <advance width="798"/>
  <unicode hex="221E"/>
  <outline>
    <contour>
      <point x="235" y="-1" type="curve"/>
      <point x="235" y="37" type="line"/>
      <point x="267" y="37"/>
      <point x="304" y="56"/>
      <point x="318" y="94" type="curve" smooth="yes"/>
      <point x="381" y="258" type="line"/>
      <point x="318" y="421" type="line" smooth="yes"/>
      <point x="304" y="459"/>
      <point x="267" y="478"/>
      <point x="235" y="478" type="curve"/>
      <point x="235" y="516" type="line"/>
      <point x="285" y="516"/>
      <point x="336" y="483"/>
      <point x="354" y="436" type="curve" smooth="yes"/>
      <point x="402" y="312" type="line"/>
      <point x="449" y="435" type="line" smooth="yes"/>
      <point x="467" y="482"/>
      <point x="518" y="515"/>
      <point x="568" y="515" type="curve"/>
      <point x="568" y="477" type="line"/>
      <point x="536" y="477"/>
      <point x="499" y="458"/>
      <point x="485" y="420" type="curve" smooth="yes"/>
      <point x="423" y="258" type="line"/>
      <point x="485" y="95" type="line" smooth="yes"/>
      <point x="499" y="57"/>
      <point x="536" y="38"/>
      <point x="568" y="38" type="curve"/>
      <point x="568" y="0" type="line"/>
      <point x="518" y="0"/>
      <point x="467" y="33"/>
      <point x="449" y="80" type="curve" smooth="yes"/>
      <point x="402" y="203" type="line"/>
      <point x="354" y="79" type="line" smooth="yes"/>
      <point x="336" y="32"/>
      <point x="285" y="-1"/>
    </contour>
    <contour>
      <point x="194" y="-1" type="line"/>
      <point x="82" y="-1"/>
      <point x="30" y="93"/>
      <point x="30" y="141" type="curve" smooth="yes"/>
      <point x="30" y="376" type="line" smooth="yes"/>
      <point x="30" y="425"/>
      <point x="84" y="516"/>
      <point x="194" y="516" type="curve"/>
      <point x="194" y="478" type="line"/>
      <point x="114" y="478"/>
      <point x="70" y="410"/>
      <point x="70" y="363" type="curve" smooth="yes"/>
      <point x="70" y="154" type="line" smooth="yes"/>
      <point x="70" y="111"/>
      <point x="121" y="37"/>
      <point x="194" y="37" type="curve"/>
    </contour>
    <contour>
      <point x="609" y="-2" type="curve"/>
      <point x="609" y="36" type="line"/>
      <point x="682" y="36"/>
      <point x="733" y="110"/>
      <point x="733" y="153" type="curve" smooth="yes"/>
      <point x="733" y="362" type="line" smooth="yes"/>
      <point x="733" y="409"/>
      <point x="689" y="477"/>
      <point x="609" y="477" type="curve"/>
      <point x="609" y="515" type="line"/>
      <point x="719" y="515"/>
      <point x="773" y="424"/>
      <point x="773" y="375" type="curve" smooth="yes"/>
      <point x="773" y="140" type="line" smooth="yes"/>
      <point x="773" y="92"/>
      <point x="721" y="-2"/>
    </contour>
  </outline>
</glyph>
<glyph name="fi" format="1">
  <advance width="494"/>
  <unicode hex="FB01"/>
  <outline>
    <contour>
      <point x="66" y="439" type="line"/>
      <point x="66" y="477" type="line"/>
      <point x="129" y="477" type="line"/>
      <point x="129" y="552" type="line" smooth="yes"/>
      <point x="129" y="597"/>
      <point x="142" y="696"/>
      <point x="248" y="696" type="curve" smooth="yes"/>
      <point x="259" y="696" type="line"/>
      <point x="250" y="658" type="line"/>
      <point x="246" y="658"/>
      <point x="242" y="658"/>
      <point x="239" y="657" type="curve" smooth="yes"/>
      <point x="179" y="652"/>
      <point x="169" y="598"/>
      <point x="169" y="552" type="curve" smooth="yes"/>
      <point x="169" y="476" type="line"/>
      <point x="315" y="476" type="line"/>
      <point x="315" y="0" type="line"/>
      <point x="275" y="0" type="line"/>
      <point x="275" y="439" type="line"/>
      <point x="169" y="439" type="line"/>
      <point x="169" y="0" type="line"/>
      <point x="129" y="0" type="line"/>
      <point x="129" y="439" type="line"/>
    </contour>
    <contour>
      <point x="267" y="583" type="curve" smooth="yes"/>
      <point x="267" y="598"/>
      <point x="280" y="610"/>
      <point x="295" y="610" type="curve" smooth="yes"/>
      <point x="310" y="610"/>
      <point x="322" y="598"/>
      <point x="322" y="583" type="curve" smooth="yes"/>
      <point x="322" y="568"/>
      <point x="310" y="556"/>
      <point x="295" y="556" type="curve" smooth="yes"/>
      <point x="280" y="556"/>
      <point x="267" y="568"/>
    </contour>
  </outline>
</glyph>
<glyph name="dottedcircle.001" format="1">
  <advance width="636"/>
  <outline>
    <contour>
      <point x="168" y="484" type="curve" smooth="yes"/>
      <point x="168" y="503"/>
      <point x="183" y="518"/>
      <point x="202" y="518" type="curve" smooth="yes"/>
      <point x="221" y="518"/>
      <point x="236" y="503"/>
      <point x="236" y="484" type="curve" smooth="yes"/>
      <point x="236" y="465"/>
      <point x="221" y="450"/>
      <point x="202" y="450" type="curve" smooth="yes"/>
      <point x="183" y="450"/>
      <point x="168" y="465"/>
    </contour>
    <contour>
      <point x="82" y="398" type="curve" smooth="yes"/>
      <point x="82" y="417"/>
      <point x="97" y="432"/>
      <point x="116" y="432" type="curve" smooth="yes"/>
      <point x="135" y="432"/>
      <point x="150" y="417"/>
      <point x="150" y="398" type="curve" smooth="yes"/>
      <point x="150" y="379"/>
      <point x="135" y="364"/>
      <point x="116" y="364" type="curve" smooth="yes"/>
      <point x="97" y="364"/>
      <point x="82" y="379"/>
    </contour>
    <contour>
      <point x="168" y="72" type="curve" smooth="yes"/>
      <point x="168" y="91"/>
      <point x="183" y="106"/>
      <point x="202" y="106" type="curve" smooth="yes"/>
      <point x="221" y="106"/>
      <point x="236" y="91"/>
      <point x="236" y="72" type="curve" smooth="yes"/>
      <point x="236" y="53"/>
      <point x="221" y="38"/>
      <point x="202" y="38" type="curve" smooth="yes"/>
      <point x="183" y="38"/>
      <point x="168" y="53"/>
    </contour>
    <contour>
      <point x="82" y="158" type="curve" smooth="yes"/>
      <point x="82" y="177"/>
      <point x="97" y="192"/>
      <point x="116" y="192" type="curve" smooth="yes"/>
      <point x="135" y="192"/>
      <point x="150" y="177"/>
      <point x="150" y="158" type="curve" smooth="yes"/>
      <point x="150" y="139"/>
      <point x="135" y="124"/>
      <point x="116" y="124" type="curve" smooth="yes"/>
      <point x="97" y="124"/>
      <point x="82" y="139"/>
    </contour>
    <contour>
      <point x="408" y="72" type="curve" smooth="yes"/>
      <point x="408" y="91"/>
      <point x="423" y="106"/>
      <point x="442" y="106" type="curve" smooth="yes"/>
      <point x="461" y="106"/>
      <point x="476" y="91"/>
      <point x="476" y="72" type="curve" smooth="yes"/>
      <point x="476" y="53"/>
      <point x="461" y="38"/>
      <point x="442" y="38" type="curve" smooth="yes"/>
      <point x="423" y="38"/>
      <point x="408" y="53"/>
    </contour>
    <contour>
      <point x="494" y="158" type="curve" smooth="yes"/>
      <point x="494" y="177"/>
      <point x="509" y="192"/>
      <point x="528" y="192" type="curve" smooth="yes"/>
      <point x="547" y="192"/>
      <point x="562" y="177"/>
      <point x="562" y="158" type="curve" smooth="yes"/>
      <point x="562" y="139"/>
      <point x="547" y="124"/>
      <point x="528" y="124" type="curve" smooth="yes"/>
      <point x="509" y="124"/>
      <point x="494" y="139"/>
    </contour>
    <contour>
      <point x="494" y="398" type="curve" smooth="yes"/>
      <point x="494" y="417"/>
      <point x="509" y="432"/>
      <point x="528" y="432" type="curve" smooth="yes"/>
      <point x="547" y="432"/>
      <point x="562" y="417"/>
      <point x="562" y="398" type="curve" smooth="yes"/>
      <point x="562" y="379"/>
      <point x="547" y="364"/>
      <point x="528" y="364" type="curve" smooth="yes"/>
      <point x="509" y="364"/>
      <point x="494" y="379"/>
    </contour>
    <contour>
      <point x="408" y="484" type="curve" smooth="yes"/>
      <point x="408" y="503"/>
      <point x="423" y="518"/>
      <point x="442" y="518" type="curve" smooth="yes"/>
      <point x="461" y="518"/>
      <point x="476" y="503"/>
      <point x="476" y="484" type="curve" smooth="yes"/>
      <point x="476" y="465"/>
      <point x="461" y="450"/>
      <point x="442" y="450" type="curve" smooth="yes"/>
      <point x="423" y="450"/>
      <point x="408" y="465"/>
    </contour>
    <contour>
      <point x="526" y="278" type="curve" smooth="yes"/>
      <point x="526" y="297"/>
      <point x="541" y="312"/>
      <point x="560" y="312" type="curve" smooth="yes"/>
      <point x="579" y="312"/>
      <point x="594" y="297"/>
      <point x="594" y="278" type="curve" smooth="yes"/>
      <point x="594" y="259"/>
      <point x="579" y="244"/>
      <point x="560" y="244" type="curve" smooth="yes"/>
      <point x="541" y="244"/>
      <point x="526" y="259"/>
    </contour>
    <contour>
      <point x="288" y="40" type="curve" smooth="yes"/>
      <point x="288" y="59"/>
      <point x="303" y="74"/>
      <point x="322" y="74" type="curve" smooth="yes"/>
      <point x="341" y="74"/>
      <point x="356" y="59"/>
      <point x="356" y="40" type="curve" smooth="yes"/>
      <point x="356" y="21"/>
      <point x="341" y="6"/>
      <point x="322" y="6" type="curve" smooth="yes"/>
      <point x="303" y="6"/>
      <point x="288" y="21"/>
    </contour>
    <contour>
      <point x="50" y="278" type="curve" smooth="yes"/>
      <point x="50" y="297"/>
      <point x="65" y="312"/>
      <point x="84" y="312" type="curve" smooth="yes"/>
      <point x="103" y="312"/>
      <point x="118" y="297"/>
      <point x="118" y="278" type="curve" smooth="yes"/>
      <point x="118" y="259"/>
      <point x="103" y="244"/>
      <point x="84" y="244" type="curve" smooth="yes"/>
      <point x="65" y="244"/>
      <point x="50" y="259"/>
    </contour>
    <contour>
      <point x="288" y="516" type="curve" smooth="yes"/>
      <point x="288" y="535"/>
      <point x="303" y="550"/>
      <point x="322" y="550" type="curve" smooth="yes"/>
      <point x="341" y="550"/>
      <point x="356" y="535"/>
      <point x="356" y="516" type="curve" smooth="yes"/>
      <point x="356" y="497"/>
      <point x="341" y="482"/>
      <point x="322" y="482" type="curve" smooth="yes"/>
      <point x="303" y="482"/>
      <point x="288" y="497"/>
    </contour>
  </outline>
</glyph>
<glyph name="mooniak" format="1">
  <advance width="952"/>
  <outline>
    <contour>
      <point x="673" y="706" type="curve" smooth="yes"/>
      <point x="673" y="769"/>
      <point x="724" y="820"/>
      <point x="787" y="820" type="curve" smooth="yes"/>
      <point x="850" y="820"/>
      <point x="901" y="769"/>
      <point x="901" y="706" type="curve" smooth="yes"/>
      <point x="901" y="643"/>
      <point x="850" y="592"/>
      <point x="787" y="592" type="curve" smooth="yes"/>
      <point x="724" y="592"/>
      <point x="673" y="643"/>
    </contour>
    <contour>
      <point x="20" y="371" type="curve" smooth="yes"/>
      <point x="20" y="545"/>
      <point x="161" y="686"/>
      <point x="335" y="686" type="curve" smooth="yes"/>
      <point x="509" y="686"/>
      <point x="650" y="545"/>
      <point x="650" y="371" type="curve" smooth="yes"/>
      <point x="650" y="197"/>
      <point x="509" y="56"/>
      <point x="335" y="56" type="curve" smooth="yes"/>
      <point x="161" y="56"/>
      <point x="20" y="197"/>
    </contour>
  </outline>
</glyph>
<glyph name="si_BR.halant" format="1">
  <advance width="586"/>
  <outline>
    <contour>
      <point x="315" y="-225" type="curve"/>
      <point x="315" y="-185" type="line"/>
      <point x="440.492" y="-185"/>
      <point x="509.786" y="-120.229"/>
      <point x="509.786" y="-47.0527" type="curve" smooth="yes"/>
      <point x="509.786" y="-14.9844"/>
      <point x="498.611" y="11.9023"/>
      <point x="475.704" y="32.124" type="curve"/>
      <point x="506.454" y="60.8232" type="line"/>
      <point x="536.936" y="33.0381"/>
      <point x="551.003" y="-4.1416"/>
      <point x="551.003" y="-47.0527" type="curve" smooth="yes"/>
      <point x="551.003" y="-161.31"/>
      <point x="451" y="-225.053"/>
    </contour>
    <contour>
      <point x="258.833" y="-225.091" type="line"/>
      <point x="116.746" y="-225.148"/>
      <point x="26.833" y="-161.891"/>
      <point x="26.833" y="-48.1436" type="curve"/>
      <point x="66.833" y="-48.1436" type="line"/>
      <point x="66.833" y="-160.449"/>
      <point x="187.833" y="-185.182"/>
      <point x="258.833" y="-185.091" type="curve"/>
    </contour>
    <component base="si_B.halant"/>
  </outline>
</glyph>
<glyph name="si_CI" format="1">
  <advance width="590"/>
  <outline>
    <contour>
      <point x="30.0254" y="309" type="line"/>
      <point x="30" y="349" type="line"/>
      <point x="209" y="349" type="line"/>
      <point x="295" y="349" type="line"/>
      <point x="294.714" y="407.658"/>
      <point x="245.87" y="438.116"/>
      <point x="198.351" y="438.116" type="curve" smooth="yes"/>
      <point x="163.821" y="438.116"/>
      <point x="129.99" y="422.033"/>
      <point x="116" y="389" type="curve"/>
      <point x="77" y="399" type="line"/>
      <point x="90.7598" y="451.927"/>
      <point x="144.095" y="478.996"/>
      <point x="198.724" y="478.996" type="curve" smooth="yes"/>
      <point x="232.305" y="478.996"/>
      <point x="266.375" y="468.767"/>
      <point x="292.041" y="448.028" type="curve" smooth="yes"/>
      <point x="317.707" y="427.289"/>
      <point x="334.968" y="396.04"/>
      <point x="334.932" y="354" type="curve" smooth="yes"/>
      <point x="335" y="309" type="line"/>
      <point x="209" y="309" type="line" smooth="yes"/>
      <point x="149.782" y="309"/>
      <point x="114.737" y="252.398"/>
      <point x="114.737" y="191.123" type="curve" smooth="yes"/>
      <point x="114.737" y="118.816"/>
      <point x="163.536" y="40"/>
      <point x="279" y="40" type="curve"/>
      <point x="279" y="0" type="line"/>
      <point x="136.137" y="0"/>
      <point x="72.8038" y="98.7086"/>
      <point x="72.8038" y="191.135" type="curve" smooth="yes"/>
      <point x="72.8038" y="235.86"/>
      <point x="87.6331" y="279.113"/>
      <point x="115.457" y="309" type="curve"/>
    </contour>
    <contour>
      <point x="186" y="612" type="line" smooth="yes"/>
      <point x="111.669" y="612"/>
      <point x="74.9774" y="663.304"/>
      <point x="74.9774" y="714.83" type="curve" smooth="yes"/>
      <point x="74.9774" y="766.802"/>
      <point x="112.309" y="819"/>
      <point x="186" y="819" type="curve" smooth="yes"/>
      <point x="279" y="819" type="line"/>
      <point x="279" y="779" type="line"/>
      <point x="176" y="779" type="line" smooth="yes"/>
      <point x="134.071" y="779"/>
      <point x="112.881" y="747.025"/>
      <point x="112.881" y="715.163" type="curve" smooth="yes"/>
      <point x="112.881" y="683.526"/>
      <point x="133.774" y="652"/>
      <point x="176" y="652" type="curve" smooth="yes"/>
      <point x="335" y="652" type="line"/>
      <point x="335" y="612" type="line"/>
    </contour>
    <contour>
      <point x="335" y="0" type="curve"/>
      <point x="335" y="40" type="line"/>
      <point x="448.056" y="40"/>
      <point x="519" y="95.2852"/>
      <point x="519" y="241" type="curve" smooth="yes"/>
      <point x="519" y="411" type="line" smooth="yes"/>
      <point x="519" y="558.715"/>
      <point x="448.056" y="612"/>
      <point x="335" y="612" type="curve"/>
      <point x="335" y="652" type="line"/>
      <point x="494.37" y="652"/>
      <point x="560" y="568.037"/>
      <point x="560" y="411" type="curve" smooth="yes"/>
      <point x="560" y="241" type="line" smooth="yes"/>
      <point x="560" y="83.9629"/>
      <point x="494.37" y="0"/>
    </contour>
    <contour>
      <point x="334.5" y="779" type="line"/>
      <point x="334.5" y="819" type="line"/>
      <point x="410" y="819" type="line" smooth="yes"/>
      <point x="488.359" y="819"/>
      <point x="543.333" y="776"/>
      <point x="543.333" y="673" type="curve"/>
      <point x="503.333" y="673" type="line"/>
      <point x="503.333" y="770"/>
      <point x="455.333" y="779"/>
      <point x="410" y="779" type="curve" smooth="yes"/>
    </contour>
  </outline>
</glyph>
<glyph name="si_DDhIi" format="1">
  <advance width="727"/>
  <outline>
    <contour>
      <point x="30" y="208" type="curve" smooth="yes"/>
      <point x="30" y="296" type="line" smooth="yes"/>
      <point x="30" y="471"/>
      <point x="152.993" y="479.245"/>
      <point x="237.051" y="479.245" type="curve" smooth="yes"/>
      <point x="288.372" y="479.245"/>
      <point x="339.684" y="479.082"/>
      <point x="391" y="479" type="curve"/>
      <point x="391" y="439" type="line"/>
      <point x="238" y="439" type="line" smooth="yes"/>
      <point x="118.46" y="439"/>
      <point x="70" y="395"/>
      <point x="70" y="296" type="curve" smooth="yes"/>
      <point x="70" y="208" type="line" smooth="yes"/>
      <point x="70" y="127.436"/>
      <point x="70.5576" y="83.5967"/>
      <point x="126" y="7" type="curve"/>
      <point x="84" y="-9" type="line"/>
      <point x="33.3584" y="68.1836"/>
      <point x="30" y="117.444"/>
    </contour>
    <component base="si_DhIi" xOffset="141"/>
  </outline>
</glyph>
<glyph name="si_DdUu" format="1">
  <advance width="624"/>
  <outline>
    <contour>
      <point x="93" y="-142" type="line"/>
      <point x="119.185" y="-155.703"/>
      <point x="140.32" y="-160.636"/>
      <point x="159.163" y="-160.636" type="curve" smooth="yes"/>
      <point x="207.629" y="-160.636"/>
      <point x="240.931" y="-128"/>
      <point x="306" y="-128" type="curve"/>
      <point x="306" y="-170" type="line"/>
      <point x="240.504" y="-170"/>
      <point x="206.646" y="-200.902"/>
      <point x="157.873" y="-200.902" type="curve" smooth="yes"/>
      <point x="139.277" y="-200.902"/>
      <point x="118.513" y="-196.41"/>
      <point x="93" y="-184" type="curve"/>
    </contour>
    <contour>
      <point x="362" y="-128" type="line"/>
      <point x="391.143" y="-128"/>
      <point x="464.825" y="-130.922"/>
      <point x="544" y="-161" type="curve"/>
      <point x="544" y="-205" type="line"/>
      <point x="459.61" y="-171.253"/>
      <point x="390" y="-170"/>
      <point x="362" y="-170" type="curve"/>
    </contour>
    <contour>
      <point x="544" y="83" type="line"/>
      <point x="584" y="103" type="line"/>
      <point x="584" y="-205" type="line"/>
      <point x="544" y="-205" type="line"/>
    </contour>
    <component base="si_Dda"/>
  </outline>
</glyph>
<glyph name="si_DdhU" format="1">
  <advance width="624"/>
  <outline>
    <contour>
      <point x="539" y="83" type="line"/>
      <point x="579" y="83" type="line"/>
      <point x="579" y="-205" type="line"/>
      <point x="539" y="-205" type="line"/>
    </contour>
    <contour>
      <point x="361" y="-165" type="line"/>
      <point x="539" y="-165" type="line"/>
      <point x="539" y="-205" type="line"/>
      <point x="361" y="-205" type="line"/>
    </contour>
    <contour>
      <point x="92" y="-165" type="line"/>
      <point x="305" y="-165" type="line"/>
      <point x="305" y="-205" type="line"/>
      <point x="92" y="-205" type="line"/>
    </contour>
    <component base="si_Ddha"/>
  </outline>
</glyph>
<glyph name="si_JIi" format="1">
  <advance width="620"/>
  <outline>
    <contour>
      <point x="293" y="579" type="line"/>
      <point x="276.26" y="591.679" type="line" smooth="yes"/>
      <point x="219.657" y="634.538"/>
      <point x="220.394" y="686.266"/>
      <point x="265.066" y="745.26" type="curve" smooth="yes"/>
      <point x="305" y="798" type="line" smooth="yes"/>
      <point x="348" y="856"/>
      <point x="412" y="918"/>
      <point x="484.452" y="858.739" type="curve" smooth="yes"/>
      <point x="520.408" y="831.801"/>
      <point x="527.692" y="781.001"/>
      <point x="500.754" y="745.045" type="curve" smooth="yes"/>
      <point x="473.815" y="709.089"/>
      <point x="423.016" y="701.806"/>
      <point x="387.06" y="728.744" type="curve" smooth="yes"/>
      <point x="364.288" y="745.805"/>
      <point x="353.017" y="771.437"/>
      <point x="354.655" y="797.807" type="curve"/>
      <point x="291.229" y="714.178" type="line" smooth="yes"/>
      <point x="251.988" y="662.355"/>
      <point x="287.153" y="634.184"/>
      <point x="317.446" y="611.244" type="curve"/>
    </contour>
    <component base="si_Ja"/>
  </outline>
</glyph>
<glyph name="si_MIi" format="1">
  <advance width="570"/>
  <outline>
    <contour>
      <point x="445.46" y="603.56" type="curve" smooth="yes"/>
      <point x="395.54" y="603.56"/>
      <point x="355.22" y="643.88"/>
      <point x="355.22" y="693.8" type="curve" smooth="yes"/>
      <point x="355.22" y="729.745"/>
      <point x="376.125" y="760.713"/>
      <point x="406.467" y="775.235" type="curve"/>
      <point x="388.86" y="778.291"/>
      <point x="371.431" y="779"/>
      <point x="357.5" y="779" type="curve" smooth="yes"/>
      <point x="299" y="779" type="line"/>
      <point x="299" y="819" type="line"/>
      <point x="373.5" y="819" type="line" smooth="yes"/>
      <point x="458.722" y="819"/>
      <point x="535.674" y="789.785"/>
      <point x="535.7" y="693.8" type="curve" smooth="yes"/>
      <point x="535.7" y="643.88"/>
      <point x="495.38" y="603.56"/>
    </contour>
    <contour>
      <point x="160" y="612" type="line" smooth="yes"/>
      <point x="85.6699" y="612"/>
      <point x="48.9775" y="663.304"/>
      <point x="48.9775" y="714.83" type="curve" smooth="yes"/>
      <point x="48.9775" y="766.802"/>
      <point x="86.3262" y="819"/>
      <point x="160" y="819" type="curve" smooth="yes"/>
      <point x="244" y="819" type="line"/>
      <point x="244" y="779" type="line"/>
      <point x="150" y="779" type="line" smooth="yes"/>
      <point x="108.08" y="779"/>
      <point x="86.8809" y="747.025"/>
      <point x="86.8809" y="715.163" type="curve" smooth="yes"/>
      <point x="86.8809" y="683.526"/>
      <point x="107.774" y="652"/>
      <point x="150" y="652" type="curve" smooth="yes"/>
      <point x="299" y="652" type="line"/>
      <point x="299" y="612" type="line"/>
    </contour>
    <contour>
      <point x="299" y="0" type="curve"/>
      <point x="299" y="40" type="line"/>
      <point x="412.056" y="40"/>
      <point x="499" y="95.2852"/>
      <point x="499" y="241" type="curve" smooth="yes"/>
      <point x="499" y="421" type="line" smooth="yes"/>
      <point x="499" y="584.715"/>
      <point x="437.056" y="612"/>
      <point x="299" y="612" type="curve"/>
      <point x="299" y="652" type="line"/>
      <point x="490.37" y="652"/>
      <point x="540" y="584.037"/>
      <point x="540" y="421" type="curve" smooth="yes"/>
      <point x="540" y="241" type="line" smooth="yes"/>
      <point x="540" y="83.9629"/>
      <point x="458.37" y="0"/>
    </contour>
    <contour>
      <point x="30" y="252" type="curve" smooth="yes"/>
      <point x="30" y="336" type="line" smooth="yes"/>
      <point x="30" y="433.794"/>
      <point x="87.6279" y="478.511"/>
      <point x="141.625" y="478.511" type="curve" smooth="yes"/>
      <point x="189.223" y="478.511"/>
      <point x="234" y="443.766"/>
      <point x="234" y="380" type="curve" smooth="yes"/>
      <point x="234" y="315" type="line" smooth="yes"/>
      <point x="234" y="288.714"/>
      <point x="254.711" y="275.607"/>
      <point x="275.442" y="275.607" type="curve" smooth="yes"/>
      <point x="296.211" y="275.607"/>
      <point x="317" y="288.763"/>
      <point x="317" y="315" type="curve" smooth="yes"/>
      <point x="317" y="469" type="line"/>
      <point x="357" y="469" type="line"/>
      <point x="357" y="310" type="line" smooth="yes"/>
      <point x="357" y="256.851"/>
      <point x="316.223" y="230.25"/>
      <point x="275.46" y="230.25" type="curve" smooth="yes"/>
      <point x="234.723" y="230.25"/>
      <point x="194" y="256.816"/>
      <point x="194" y="310" type="curve" smooth="yes"/>
      <point x="194" y="380" type="line" smooth="yes"/>
      <point x="194" y="415.421"/>
      <point x="166.887" y="437.969"/>
      <point x="138.018" y="437.969" type="curve" smooth="yes"/>
      <point x="105.148" y="437.969"/>
      <point x="70" y="408.739"/>
      <point x="70" y="336" type="curve" smooth="yes"/>
      <point x="70" y="252" type="line" smooth="yes"/>
      <point x="70" y="53.8477"/>
      <point x="203.323" y="40"/>
      <point x="243" y="40" type="curve"/>
      <point x="243" y="0" type="line"/>
      <point x="67.2822" y="0"/>
      <point x="30" y="143"/>
    </contour>
  </outline>
</glyph>
<glyph name="si_MRI" format="1">
  <advance width="570"/>
  <outline>
    <contour>
      <point x="300" y="-225" type="curve"/>
      <point x="300" y="-185" type="line"/>
      <point x="463.851" y="-185"/>
      <point x="558.009" y="-26.0862"/>
      <point x="446.704" y="52.124" type="curve"/>
      <point x="477.454" y="80.8232" type="line"/>
      <point x="623.507" y="-32.3096"/>
      <point x="501.84" y="-225.078"/>
    </contour>
    <contour>
      <point x="243.833" y="-225.091" type="line"/>
      <point x="110.746" y="-225.148"/>
      <point x="27.833" y="-141.891"/>
      <point x="27.833" y="-48.1436" type="curve"/>
      <point x="67.833" y="-48.1436" type="line"/>
      <point x="67.833" y="-140.449"/>
      <point x="181.833" y="-185.182"/>
      <point x="243.833" y="-185.091" type="curve"/>
    </contour>
    <component base="si_MI"/>
  </outline>
</glyph>
<glyph name="si_MUu" format="1">
  <advance width="570"/>
  <outline>
    <contour>
      <point x="38" y="-142" type="line"/>
      <point x="64.1855" y="-155.703"/>
      <point x="95.3203" y="-160.636"/>
      <point x="114.163" y="-160.636" type="curve" smooth="yes"/>
      <point x="162.629" y="-160.636"/>
      <point x="177.931" y="-128"/>
      <point x="243" y="-128" type="curve"/>
      <point x="243" y="-170" type="line"/>
      <point x="177.504" y="-170"/>
      <point x="161.646" y="-200.902"/>
      <point x="112.873" y="-200.902" type="curve" smooth="yes"/>
      <point x="94.2773" y="-200.902"/>
      <point x="63.5127" y="-196.41"/>
      <point x="38" y="-184" type="curve"/>
    </contour>
    <contour>
      <point x="299" y="-128" type="line"/>
      <point x="328.143" y="-128"/>
      <point x="398.825" y="-130.922"/>
      <point x="478" y="-161" type="curve"/>
      <point x="478" y="-205" type="line"/>
      <point x="393.61" y="-171.253"/>
      <point x="327" y="-170"/>
      <point x="299" y="-170" type="curve"/>
    </contour>
    <contour>
      <point x="478" y="113" type="line"/>
      <point x="518" y="133" type="line"/>
      <point x="518" y="-205" type="line"/>
      <point x="478" y="-205" type="line"/>
    </contour>
    <component base="si_Ma"/>
  </outline>
</glyph>
<glyph name="si_MbUu" format="1">
  <advance width="583"/>
  <outline>
    <contour>
      <point x="43" y="-142" type="line"/>
      <point x="69.1846" y="-155.703"/>
      <point x="90.3203" y="-160.636"/>
      <point x="109.163" y="-160.636" type="curve" smooth="yes"/>
      <point x="157.629" y="-160.636"/>
      <point x="190.931" y="-128"/>
      <point x="256" y="-128" type="curve"/>
      <point x="256" y="-170" type="line"/>
      <point x="190.504" y="-170"/>
      <point x="156.646" y="-200.902"/>
      <point x="107.873" y="-200.902" type="curve" smooth="yes"/>
      <point x="89.2773" y="-200.902"/>
      <point x="68.5127" y="-196.41"/>
      <point x="43" y="-184" type="curve"/>
    </contour>
    <contour>
      <point x="312" y="-128" type="line"/>
      <point x="341.143" y="-128"/>
      <point x="419.825" y="-130.922"/>
      <point x="499" y="-161" type="curve"/>
      <point x="499" y="-205" type="line"/>
      <point x="414.61" y="-171.253"/>
      <point x="340" y="-170"/>
      <point x="312" y="-170" type="curve"/>
    </contour>
    <contour>
      <point x="499" y="83" type="line"/>
      <point x="539" y="103" type="line"/>
      <point x="539" y="-205" type="line"/>
      <point x="499" y="-205" type="line"/>
    </contour>
    <component base="si_Mba"/>
  </outline>
</glyph>
<glyph name="si_NgI" format="1">
  <advance width="580"/>
  <outline>
    <contour>
      <point x="308.5" y="779" type="line"/>
      <point x="308.5" y="819" type="line"/>
      <point x="402" y="819" type="line" smooth="yes"/>
      <point x="480.359" y="819"/>
      <point x="535.333" y="776"/>
      <point x="535.333" y="673" type="curve"/>
      <point x="495.333" y="673" type="line"/>
      <point x="495.333" y="770"/>
      <point x="447.333" y="779"/>
      <point x="402" y="779" type="curve" smooth="yes"/>
    </contour>
    <contour>
      <point x="325" y="652" type="line"/>
      <point x="484.37" y="652"/>
      <point x="550" y="568.037"/>
      <point x="550" y="411" type="curve" smooth="yes"/>
      <point x="550" y="242" type="line" smooth="yes"/>
      <point x="508" y="242" type="line" smooth="yes"/>
      <point x="508" y="411" type="line" smooth="yes"/>
      <point x="508" y="558.715"/>
      <point x="438.056" y="612"/>
      <point x="325" y="612" type="curve"/>
    </contour>
    <contour>
      <point x="160" y="612" type="line" smooth="yes"/>
      <point x="85.6695" y="612"/>
      <point x="48.9774" y="663.304"/>
      <point x="48.9774" y="714.83" type="curve" smooth="yes"/>
      <point x="48.9774" y="766.802"/>
      <point x="86.3087" y="819"/>
      <point x="160" y="819" type="curve" smooth="yes"/>
      <point x="253" y="819" type="line"/>
      <point x="253" y="779" type="line"/>
      <point x="150" y="779" type="line" smooth="yes"/>
      <point x="108.071" y="779"/>
      <point x="86.8813" y="747.025"/>
      <point x="86.8813" y="715.163" type="curve" smooth="yes"/>
      <point x="86.8813" y="683.526"/>
      <point x="107.774" y="652"/>
      <point x="150" y="652" type="curve" smooth="yes"/>
      <point x="325" y="652" type="line"/>
      <point x="325" y="612" type="line"/>
    </contour>
    <contour>
      <point x="53" y="402.8" type="line"/>
      <point x="53" y="464.327"/>
      <point x="93.2119" y="495.8"/>
      <point x="173" y="495.8" type="curve" smooth="yes"/>
      <point x="258" y="495.8" type="line" smooth="yes"/>
      <point x="322.961" y="495.8"/>
      <point x="354.745" y="450.032"/>
      <point x="354.745" y="403.927" type="curve" smooth="yes"/>
      <point x="354.745" y="357.137"/>
      <point x="322.01" y="310"/>
      <point x="258" y="310" type="curve" smooth="yes"/>
      <point x="210.667" y="310" type="line" smooth="yes"/>
      <point x="84.8457" y="310"/>
      <point x="72" y="279.941"/>
      <point x="72" y="228" type="curve" smooth="yes"/>
      <point x="72" y="139" type="line" smooth="yes"/>
      <point x="72" y="104.059"/>
      <point x="94.8457" y="40"/>
      <point x="171" y="40" type="curve" smooth="yes"/>
      <point x="246.154" y="40"/>
      <point x="269" y="104.059"/>
      <point x="269" y="139" type="curve" smooth="yes"/>
      <point x="269" y="192" type="line"/>
      <point x="311" y="192" type="line"/>
      <point x="311" y="139" type="line" smooth="yes"/>
      <point x="311" y="104.059"/>
      <point x="333.846" y="40"/>
      <point x="409" y="40" type="curve" smooth="yes"/>
      <point x="485.154" y="40"/>
      <point x="508" y="104.059"/>
      <point x="508" y="139" type="curve" smooth="yes"/>
      <point x="508" y="242" type="line"/>
      <point x="550" y="242" type="line"/>
      <point x="550" y="133" type="line" smooth="yes"/>
      <point x="550" y="52.25"/>
      <point x="491.893" y="0"/>
      <point x="409" y="0" type="curve" smooth="yes"/>
      <point x="356.595" y="0"/>
      <point x="313.931" y="21.3961"/>
      <point x="290" y="57.9649" type="curve"/>
      <point x="266.069" y="21.3961"/>
      <point x="223.405" y="3.55271e-15"/>
      <point x="171" y="0" type="curve" smooth="yes"/>
      <point x="88.1074" y="0"/>
      <point x="30" y="52.25"/>
      <point x="30" y="133" type="curve" smooth="yes"/>
      <point x="30" y="227" type="line" smooth="yes"/>
      <point x="30" y="307.75"/>
      <point x="70.1074" y="350"/>
      <point x="160.667" y="350" type="curve" smooth="yes"/>
      <point x="259" y="350" type="line" smooth="yes"/>
      <point x="297.429" y="350"/>
      <point x="317.144" y="377.602"/>
      <point x="317.144" y="404.609" type="curve" smooth="yes"/>
      <point x="317.144" y="430.477"/>
      <point x="299.056" y="455.8"/>
      <point x="262" y="455.8" type="curve" smooth="yes"/>
      <point x="174" y="455.8" type="line" smooth="yes"/>
      <point x="96.3633" y="455.8"/>
      <point x="93" y="414.199"/>
      <point x="93" y="402.8" type="curve"/>
    </contour>
  </outline>
</glyph>
<glyph name="si_NnIi" format="1">
  <advance width="963"/>
  <outline>
    <contour>
      <point x="846.179" y="586.152" type="curve" smooth="yes"/>
      <point x="801.253" y="585.654"/>
      <point x="764.564" y="621.538"/>
      <point x="764.066" y="666.463" type="curve" smooth="yes"/>
      <point x="763.751" y="694.915"/>
      <point x="777.075" y="719.256"/>
      <point x="799" y="734" type="curve"/>
      <point x="708" y="734" type="line" smooth="yes"/>
      <point x="632.998" y="733.611"/>
      <point x="628.236" y="688.216"/>
      <point x="628.463" y="650.218" type="curve"/>
      <point x="588" y="650" type="line"/>
      <point x="587.877" y="670.999" type="line" smooth="yes"/>
      <point x="587.467" y="740.996"/>
      <point x="643.045" y="774"/>
      <point x="717" y="774" type="curve" smooth="yes"/>
      <point x="789" y="774" type="line" smooth="yes"/>
      <point x="861.016" y="773.699"/>
      <point x="926.451" y="748.86"/>
      <point x="926.488" y="668.265" type="curve" smooth="yes"/>
      <point x="926.509" y="623.337"/>
      <point x="891.104" y="586.65"/>
    </contour>
    <component base="si_Nna"/>
  </outline>
</glyph>
<glyph name="si_RAae" format="1">
  <advance width="815"/>
  <outline>
    <contour>
      <point x="139.926" y="524" type="line"/>
      <point x="181" y="564" type="line"/>
      <point x="305" y="563.981" type="line"/>
      <point x="437.509" y="563.953"/>
      <point x="485" y="484.189"/>
      <point x="485" y="361" type="curve" smooth="yes"/>
      <point x="485" y="235" type="line" smooth="yes"/>
      <point x="485" y="42.8447"/>
      <point x="402.532" y="-5"/>
      <point x="290" y="-5" type="curve"/>
      <point x="290" y="35" type="line"/>
      <point x="400.586" y="35"/>
      <point x="445" y="102.591"/>
      <point x="445" y="235" type="curve" smooth="yes"/>
      <point x="445" y="360" type="line" smooth="yes"/>
      <point x="445" y="493.865"/>
      <point x="375.742" y="524"/>
      <point x="304" y="524" type="curve" smooth="yes"/>
      <point x="140" y="524" type="line"/>
    </contour>
    <contour>
      <point x="30" y="235" type="curve" smooth="yes"/>
      <point x="30" y="427" type="line" smooth="yes"/>
      <point x="30" y="478"/>
      <point x="31.0692" y="559.077"/>
      <point x="123" y="634.002" type="curve" smooth="yes"/>
      <point x="296" y="775" type="line"/>
      <point x="363" y="775" type="line"/>
      <point x="147" y="599" type="line" smooth="yes"/>
      <point x="72.5447" y="538.333"/>
      <point x="70" y="487"/>
      <point x="70" y="420" type="curve" smooth="yes"/>
      <point x="70" y="235" type="line" smooth="yes"/>
      <point x="70" y="94"/>
      <point x="134.222" y="34"/>
      <point x="234" y="34" type="curve"/>
      <point x="234" y="-6" type="line"/>
      <point x="131.578" y="-6"/>
      <point x="30" y="51.1748"/>
    </contour>
    <contour>
      <point x="534.989" y="407.358" type="line" smooth="yes"/>
      <point x="534.989" y="470.528"/>
      <point x="549" y="505"/>
      <point x="664" y="584" type="curve"/>
      <point x="732" y="584" type="line"/>
      <point x="577" y="476"/>
      <point x="575" y="452.229"/>
      <point x="575" y="407" type="curve" smooth="yes"/>
      <point x="575" y="160" type="line" smooth="yes"/>
      <point x="575" y="111.017"/>
      <point x="577.804" y="40"/>
      <point x="700" y="40" type="curve" smooth="yes"/>
      <point x="708.854" y="40"/>
      <point x="727.681" y="40"/>
      <point x="732" y="40" type="curve"/>
      <point x="732" y="0" type="line"/>
      <point x="724.533" y="-0.00195312"/>
      <point x="708.229" y="-0.00292969"/>
      <point x="701.19" y="-0.00292969" type="curve" smooth="yes"/>
      <point x="604.365" y="-0.00292969"/>
      <point x="535.006" y="33.0441"/>
      <point x="535" y="160" type="curve" smooth="yes"/>
    </contour>
    <contour>
      <point x="378" y="735" type="line"/>
      <point x="423" y="775" type="line"/>
      <point x="732" y="775" type="line"/>
      <point x="732" y="735" type="line"/>
    </contour>
    <contour>
      <point x="535" y="584" type="line"/>
      <point x="535" y="624" type="line"/>
      <point x="732" y="624" type="line"/>
      <point x="732" y="584" type="line"/>
    </contour>
    <contour>
      <point x="535" y="624" type="line"/>
      <point x="669" y="735" type="line"/>
      <point x="732" y="735" type="line"/>
      <point x="597" y="624" type="line"/>
    </contour>
  </outline>
</glyph>
<glyph name="si_SsR.halant" format="1">
  <advance width="620"/>
  <outline>
    <contour>
      <point x="339.115" y="-193.947" type="line"/>
      <point x="503.148" y="-193.947"/>
      <point x="601.99" y="-62.1112"/>
      <point x="536" y="66" type="curve"/>
      <point x="570" y="89" type="line"/>
      <point x="644.297" y="-41.9865"/>
      <point x="558" y="-234"/>
      <point x="339.115" y="-233.947" type="curve"/>
    </contour>
    <contour>
      <point x="284" y="-234" type="line"/>
      <point x="153.885" y="-234.053"/>
      <point x="30.833" y="-168.776"/>
      <point x="30.833" y="-37.0908" type="curve"/>
      <point x="70.833" y="-37.0908" type="line"/>
      <point x="70.833" y="-163.737"/>
      <point x="203" y="-194"/>
      <point x="284" y="-194" type="curve"/>
    </contour>
    <component base="si_Ss.halant"/>
  </outline>
</glyph>
<glyph name="si_Th.halant" format="1">
  <advance width="544"/>
  <outline>
    <contour>
      <point x="472.001" y="518" type="line"/>
      <point x="472.001" y="819" type="line"/>
      <point x="514.001" y="819" type="line"/>
      <point x="514.001" y="518" type="line"/>
    </contour>
    <component base="si_Tha"/>
  </outline>
</glyph>
<glyph name="si_TtI" format="1">
  <advance width="544"/>
  <outline>
    <contour>
      <point x="150.5" y="612" type="line" smooth="yes"/>
      <point x="76.1699" y="612"/>
      <point x="39.4775" y="663.304"/>
      <point x="39.4775" y="714.83" type="curve" smooth="yes"/>
      <point x="39.4775" y="766.802"/>
      <point x="76.8086" y="819"/>
      <point x="150.5" y="819" type="curve" smooth="yes"/>
      <point x="233.5" y="819" type="line"/>
      <point x="233.5" y="779" type="line"/>
      <point x="140.5" y="779" type="line" smooth="yes"/>
      <point x="98.5713" y="779"/>
      <point x="77.3809" y="747.025"/>
      <point x="77.3809" y="715.163" type="curve" smooth="yes"/>
      <point x="77.3809" y="683.526"/>
      <point x="98.2744" y="652"/>
      <point x="140.5" y="652" type="curve" smooth="yes"/>
      <point x="289" y="652" type="line"/>
      <point x="289" y="612" type="line"/>
    </contour>
    <contour>
      <point x="232.625" y="0" type="line"/>
      <point x="83.3838" y="0"/>
      <point x="30" y="116"/>
      <point x="30" y="200" type="curve" smooth="yes"/>
      <point x="29.999" y="270" type="line" smooth="yes"/>
      <point x="29.999" y="354.561"/>
      <point x="72.6602" y="470"/>
      <point x="232.625" y="470" type="curve"/>
      <point x="232.625" y="429.931" type="line"/>
      <point x="120.966" y="429.996"/>
      <point x="71" y="357.23"/>
      <point x="71" y="270" type="curve" smooth="yes"/>
      <point x="71" y="200" type="line" smooth="yes"/>
      <point x="71" y="112"/>
      <point x="131.89" y="40.0039"/>
      <point x="232.625" y="40.0693" type="curve"/>
    </contour>
    <contour>
      <point x="289" y="0" type="curve"/>
      <point x="289" y="40" type="line"/>
      <point x="402.056" y="40"/>
      <point x="473" y="95.2852"/>
      <point x="473" y="241" type="curve" smooth="yes"/>
      <point x="473" y="411" type="line" smooth="yes"/>
      <point x="473" y="558.715"/>
      <point x="402.056" y="612"/>
      <point x="289" y="612" type="curve"/>
      <point x="289" y="652" type="line"/>
      <point x="448.37" y="652"/>
      <point x="514" y="568.037"/>
      <point x="514" y="411" type="curve" smooth="yes"/>
      <point x="514" y="241" type="line" smooth="yes"/>
      <point x="514" y="83.9629"/>
      <point x="448.37" y="0"/>
    </contour>
    <contour>
      <point x="289" y="779" type="line"/>
      <point x="289" y="819" type="line"/>
      <point x="364.5" y="819" type="line" smooth="yes"/>
      <point x="442.859" y="819"/>
      <point x="497.833" y="776"/>
      <point x="497.833" y="673" type="curve"/>
      <point x="457.833" y="673" type="line"/>
      <point x="457.833" y="770"/>
      <point x="409.833" y="779"/>
      <point x="364.5" y="779" type="curve" smooth="yes"/>
    </contour>
  </outline>
</glyph>
<glyph name="si_TtIi" format="1">
  <advance width="544"/>
  <outline>
    <contour>
      <point x="150.5" y="612" type="line" smooth="yes"/>
      <point x="76.1699" y="612"/>
      <point x="39.4775" y="663.304"/>
      <point x="39.4775" y="714.83" type="curve" smooth="yes"/>
      <point x="39.4775" y="766.802"/>
      <point x="76.8086" y="819"/>
      <point x="150.5" y="819" type="curve" smooth="yes"/>
      <point x="233.5" y="819" type="line"/>
      <point x="233.5" y="779" type="line"/>
      <point x="140.5" y="779" type="line" smooth="yes"/>
      <point x="98.5713" y="779"/>
      <point x="77.3809" y="747.025"/>
      <point x="77.3809" y="715.163" type="curve" smooth="yes"/>
      <point x="77.3809" y="683.526"/>
      <point x="98.2744" y="652"/>
      <point x="140.5" y="652" type="curve" smooth="yes"/>
      <point x="289" y="652" type="line"/>
      <point x="289" y="612" type="line"/>
    </contour>
    <contour>
      <point x="29.999" y="270" type="line" smooth="yes"/>
      <point x="29.999" y="354.561"/>
      <point x="72.6602" y="470"/>
      <point x="232.625" y="470" type="curve"/>
      <point x="232.625" y="429.931" type="line"/>
      <point x="120.966" y="429.996"/>
      <point x="71" y="357.23"/>
      <point x="71" y="270" type="curve" smooth="yes"/>
      <point x="71" y="200" type="line" smooth="yes"/>
      <point x="71" y="112"/>
      <point x="131.89" y="40.0039"/>
      <point x="232.625" y="40.0693" type="curve"/>
      <point x="232.625" y="0" type="line"/>
      <point x="83.3838" y="0"/>
      <point x="30" y="116"/>
      <point x="30" y="200" type="curve" smooth="yes"/>
    </contour>
    <contour>
      <point x="289" y="0" type="curve"/>
      <point x="289" y="40" type="line"/>
      <point x="402.056" y="40"/>
      <point x="473" y="95.2852"/>
      <point x="473" y="241" type="curve" smooth="yes"/>
      <point x="473" y="411" type="line" smooth="yes"/>
      <point x="473" y="558.715"/>
      <point x="402.056" y="612"/>
      <point x="289" y="612" type="curve"/>
      <point x="289" y="652" type="line"/>
      <point x="293.726" y="652"/>
      <point x="298.369" y="651.926"/>
      <point x="302.93" y="651.779" type="curve" smooth="yes"/>
      <point x="452.204" y="646.956"/>
      <point x="514" y="563.381"/>
      <point x="514" y="411" type="curve" smooth="yes"/>
      <point x="514" y="241" type="line" smooth="yes"/>
      <point x="514" y="83.9629"/>
      <point x="448.37" y="0"/>
    </contour>
    <contour>
      <point x="435.46" y="603.56" type="curve" smooth="yes"/>
      <point x="385.54" y="603.56"/>
      <point x="345.22" y="643.88"/>
      <point x="345.22" y="693.8" type="curve" smooth="yes"/>
      <point x="345.22" y="729.745"/>
      <point x="366.125" y="760.713"/>
      <point x="396.467" y="775.235" type="curve"/>
      <point x="378.86" y="778.291"/>
      <point x="361.431" y="779"/>
      <point x="347.5" y="779" type="curve" smooth="yes"/>
      <point x="289" y="779" type="line"/>
      <point x="289" y="819" type="line"/>
      <point x="363.5" y="819" type="line" smooth="yes"/>
      <point x="448.722" y="819"/>
      <point x="525.674" y="789.785"/>
      <point x="525.7" y="693.8" type="curve" smooth="yes"/>
      <point x="525.7" y="643.88"/>
      <point x="485.38" y="603.56"/>
    </contour>
  </outline>
</glyph>
<glyph name="si_TtTthI" format="1">
  <advance width="708"/>
  <outline>
    <contour>
      <point x="30" y="209" type="curve" smooth="yes"/>
      <point x="30" y="297" type="line" smooth="yes"/>
      <point x="30" y="472"/>
      <point x="152.993" y="480.245"/>
      <point x="237.051" y="480.245" type="curve" smooth="yes"/>
      <point x="288.372" y="480.245"/>
      <point x="339.684" y="480.082"/>
      <point x="391" y="480" type="curve"/>
      <point x="391" y="440" type="line"/>
      <point x="238" y="440" type="line" smooth="yes"/>
      <point x="118.46" y="440"/>
      <point x="70" y="396"/>
      <point x="70" y="297" type="curve" smooth="yes"/>
      <point x="70" y="209" type="line" smooth="yes"/>
      <point x="70" y="128.436"/>
      <point x="70.5576" y="84.5967"/>
      <point x="126" y="8" type="curve"/>
      <point x="84" y="-8" type="line"/>
      <point x="33.3584" y="69.1836"/>
      <point x="30" y="118.444"/>
    </contour>
    <component base="si_TthI" xOffset="128"/>
  </outline>
</glyph>
<glyph name="si_TthUu" format="1">
  <advance width="580"/>
  <outline>
    <contour>
      <point x="46" y="-142" type="line"/>
      <point x="72.1855" y="-155.703"/>
      <point x="93.3203" y="-160.636"/>
      <point x="112.163" y="-160.636" type="curve" smooth="yes"/>
      <point x="160.629" y="-160.636"/>
      <point x="193.931" y="-128"/>
      <point x="259" y="-128" type="curve"/>
      <point x="259" y="-170" type="line"/>
      <point x="193.504" y="-170"/>
      <point x="159.646" y="-200.902"/>
      <point x="110.873" y="-200.902" type="curve" smooth="yes"/>
      <point x="92.2773" y="-200.902"/>
      <point x="71.5127" y="-196.41"/>
      <point x="46" y="-184" type="curve"/>
    </contour>
    <contour>
      <point x="315" y="-128" type="line"/>
      <point x="344.143" y="-128"/>
      <point x="413.825" y="-130.922"/>
      <point x="493" y="-161" type="curve"/>
      <point x="493" y="-205" type="line"/>
      <point x="408.61" y="-171.253"/>
      <point x="343" y="-170"/>
      <point x="315" y="-170" type="curve"/>
    </contour>
    <contour>
      <point x="493" y="83" type="line"/>
      <point x="533" y="83" type="line"/>
      <point x="533" y="-205" type="line"/>
      <point x="493" y="-205" type="line"/>
    </contour>
    <component base="si_Ttha" xOffset="-13"/>
  </outline>
</glyph>
<glyph name="tml_JI" format="1">
  <advance width="995"/>
  <outline>
    <contour>
      <point x="258" y="-180" type="curve"/>
      <point x="258" y="-140" type="line"/>
      <point x="186" y="-140"/>
      <point x="105" y="-78"/>
      <point x="105" y="46" type="curve" smooth="yes"/>
      <point x="105" y="172"/>
      <point x="182" y="196"/>
      <point x="227" y="196" type="curve" smooth="yes"/>
      <point x="665" y="196" type="line" smooth="yes"/>
      <point x="745" y="196"/>
      <point x="837" y="218"/>
      <point x="839" y="387" type="curve" smooth="yes"/>
      <point x="839" y="502" type="line"/>
      <point x="839" y="617"/>
      <point x="780" y="683"/>
      <point x="647" y="683" type="curve"/>
      <point x="530" y="683"/>
      <point x="475" y="606"/>
      <point x="475" y="480" type="curve" smooth="yes"/>
      <point x="475" y="371" type="line"/>
      <point x="514" y="371" type="line"/>
      <point x="514" y="464" type="line" smooth="yes"/>
      <point x="514" y="620"/>
      <point x="584" y="643"/>
      <point x="650" y="643" type="curve"/>
      <point x="723" y="643"/>
      <point x="799" y="618"/>
      <point x="799" y="502" type="curve"/>
      <point x="799" y="419" type="line"/>
      <point x="795" y="291"/>
      <point x="785" y="236"/>
      <point x="651" y="236" type="curve" smooth="yes"/>
      <point x="234" y="236" type="line" smooth="yes"/>
      <point x="110" y="236"/>
      <point x="65" y="138"/>
      <point x="65" y="64" type="curve" smooth="yes"/>
      <point x="65" y="25" type="line" smooth="yes"/>
      <point x="65" y="-57"/>
      <point x="132" y="-180"/>
    </contour>
    <contour>
      <point x="40" y="471" type="line" smooth="yes"/>
      <point x="40" y="397"/>
      <point x="98" y="307"/>
      <point x="178" y="307" type="curve"/>
      <point x="178" y="343" type="line"/>
      <point x="156" y="343"/>
      <point x="81" y="380"/>
      <point x="81" y="481" type="curve" smooth="yes"/>
      <point x="81" y="596"/>
      <point x="162" y="649"/>
      <point x="207" y="649" type="curve" smooth="yes"/>
      <point x="259" y="649"/>
      <point x="335" y="612"/>
      <point x="335" y="499" type="curve" smooth="yes"/>
      <point x="335" y="394"/>
      <point x="256" y="344"/>
      <point x="232" y="344" type="curve"/>
      <point x="232" y="307" type="line"/>
      <point x="307" y="307"/>
      <point x="372" y="410"/>
      <point x="372" y="471" type="curve" smooth="yes"/>
      <point x="372" y="499" type="line" smooth="yes"/>
      <point x="372" y="604"/>
      <point x="315" y="685"/>
      <point x="201" y="686" type="curve" smooth="yes"/>
      <point x="151" y="686"/>
      <point x="41" y="581"/>
      <point x="41" y="496" type="curve" smooth="yes"/>
    </contour>
    <contour>
      <point x="40" y="472" type="line"/>
      <point x="78" y="483" type="line"/>
      <point x="80" y="616"/>
      <point x="160" y="660"/>
      <point x="274" y="660" type="curve" smooth="yes"/>
      <point x="434" y="660"/>
      <point x="475" y="537"/>
      <point x="475" y="481" type="curve" smooth="yes"/>
      <point x="475" y="320" type="line"/>
      <point x="514" y="320" type="line"/>
      <point x="514" y="460" type="line" smooth="yes"/>
      <point x="514" y="592"/>
      <point x="443" y="696"/>
      <point x="273" y="696" type="curve"/>
      <point x="69" y="696"/>
      <point x="40" y="537"/>
      <point x="40" y="482" type="curve" smooth="yes"/>
    </contour>
    <contour>
      <point x="319" y="-140" type="curve"/>
      <point x="319" y="-180" type="line"/>
      <point x="426" y="-180"/>
      <point x="494" y="-135"/>
      <point x="501" y="-59" type="curve" smooth="yes"/>
      <point x="512" y="65"/>
      <point x="501" y="100"/>
      <point x="560" y="100" type="curve"/>
      <point x="593" y="100" type="line"/>
      <point x="593" y="140" type="line"/>
      <point x="558" y="140" type="line"/>
      <point x="471" y="140"/>
      <point x="468" y="82"/>
      <point x="462" y="-23" type="curve" smooth="yes"/>
      <point x="456" y="-125"/>
      <point x="394" y="-140"/>
    </contour>
    <contour>
      <point x="640" y="677" type="curve"/>
      <point x="680" y="677" type="line" smooth="yes"/>
      <point x="680" y="738"/>
      <point x="691" y="805"/>
      <point x="771" y="805" type="curve" smooth="yes"/>
      <point x="771" y="845" type="line" smooth="yes"/>
      <point x="677" y="845"/>
      <point x="640" y="781"/>
    </contour>
    <contour>
      <point x="548" y="-137" type="curve" smooth="yes"/>
      <point x="548" y="-177" type="line" smooth="yes"/>
      <point x="703" y="-177"/>
      <point x="833" y="-151"/>
      <point x="833" y="-16" type="curve" smooth="yes"/>
      <point x="833" y="97"/>
      <point x="734" y="140"/>
      <point x="647" y="140" type="curve"/>
      <point x="647" y="100" type="line"/>
      <point x="679" y="99"/>
      <point x="791" y="90"/>
      <point x="793" y="-14" type="curve" smooth="yes"/>
      <point x="795" y="-138"/>
      <point x="619" y="-137"/>
    </contour>
    <contour>
      <point x="825" y="805" type="line"/>
      <point x="911" y="805"/>
      <point x="915" y="738"/>
      <point x="915" y="676" type="curve" smooth="yes"/>
      <point x="915" y="68" type="line"/>
      <point x="955" y="68" type="line"/>
      <point x="955" y="679" type="line" smooth="yes"/>
      <point x="955" y="781"/>
      <point x="922" y="845"/>
      <point x="825" y="845" type="curve"/>
    </contour>
  </outline>
</glyph>
<glyph name="tml_NI" format="1">
  <advance width="780"/>
  <outline>
    <contour>
      <point x="553" y="727" type="line"/>
      <point x="690" y="727"/>
      <point x="700" y="653"/>
      <point x="700" y="591" type="curve" smooth="yes"/>
      <point x="700" y="1" type="line"/>
      <point x="740" y="1" type="line"/>
      <point x="740" y="594" type="line" smooth="yes"/>
      <point x="740" y="697"/>
      <point x="696" y="767"/>
      <point x="553" y="767" type="curve"/>
    </contour>
    <contour>
      <point x="319" y="592" type="curve"/>
      <point x="358" y="592" type="line" smooth="yes"/>
      <point x="358" y="653"/>
      <point x="363" y="727"/>
      <point x="499" y="727" type="curve" smooth="yes"/>
      <point x="499" y="767" type="line" smooth="yes"/>
      <point x="356" y="767"/>
      <point x="319" y="696"/>
    </contour>
    <component base="tml_Na" xOffset="-37"/>
  </outline>
</glyph>
<glyph name="tml_RIi" format="1">
  <advance width="658"/>
  <outline>
    <contour>
      <point x="324" y="570" type="line"/>
      <point x="366" y="570" type="line"/>
      <point x="366" y="593" type="line" smooth="yes"/>
      <point x="291" y="751"/>
      <point x="389" y="859"/>
      <point x="471" y="859" type="curve"/>
      <point x="569" y="859"/>
      <point x="577" y="792"/>
      <point x="577" y="777" type="curve" smooth="yes"/>
      <point x="577" y="718"/>
      <point x="528" y="702"/>
      <point x="505" y="702" type="curve" smooth="yes"/>
      <point x="480" y="702"/>
      <point x="446" y="725"/>
      <point x="446" y="741" type="curve" smooth="yes"/>
      <point x="420" y="710" type="line"/>
      <point x="430" y="689"/>
      <point x="464" y="662"/>
      <point x="502" y="662" type="curve" smooth="yes"/>
      <point x="665" y="662"/>
      <point x="655" y="899"/>
      <point x="481" y="899" type="curve" smooth="yes"/>
      <point x="345" y="899"/>
      <point x="250" y="753"/>
      <point x="324" y="594" type="curve" smooth="yes"/>
    </contour>
    <component base="tml_Ra"/>
  </outline>
</glyph>
<glyph name="tml_SUu" format="1">
  <advance width="1609"/>
  <outline>
    <contour>
      <point x="935" y="557" type="line"/>
      <point x="1249" y="557" type="line" smooth="yes"/>
      <point x="1346" y="557"/>
      <point x="1378" y="526"/>
      <point x="1378" y="471" type="curve" smooth="yes"/>
      <point x="1378" y="453"/>
      <point x="1359" y="399"/>
      <point x="1304" y="399" type="curve" smooth="yes"/>
      <point x="1245" y="399"/>
      <point x="1228" y="452"/>
      <point x="1228" y="472" type="curve" smooth="yes"/>
      <point x="1188" y="472" type="line"/>
      <point x="1188" y="422"/>
      <point x="1230" y="359"/>
      <point x="1299" y="359" type="curve" smooth="yes"/>
      <point x="1311" y="359" type="line" smooth="yes"/>
      <point x="1366" y="359"/>
      <point x="1418" y="413"/>
      <point x="1418" y="472" type="curve" smooth="yes"/>
      <point x="1418" y="479" type="line" smooth="yes"/>
      <point x="1418" y="546"/>
      <point x="1368" y="597"/>
      <point x="1253" y="597" type="curve" smooth="yes"/>
      <point x="935" y="597" type="line"/>
    </contour>
    <contour>
      <point x="1185" y="594" type="curve" smooth="yes"/>
      <point x="1225" y="594" type="line"/>
      <point x="1225" y="696"/>
      <point x="1270" y="754"/>
      <point x="1377" y="754" type="curve" smooth="yes"/>
      <point x="1487" y="754"/>
      <point x="1529" y="695"/>
      <point x="1529" y="638" type="curve" smooth="yes"/>
      <point x="1529" y="314" type="line" smooth="yes"/>
      <point x="1529" y="232"/>
      <point x="1477" y="229"/>
      <point x="1431" y="229" type="curve" smooth="yes"/>
      <point x="1372" y="229" type="line" smooth="yes"/>
      <point x="1372" y="189" type="line" smooth="yes"/>
      <point x="1431" y="189" type="line" smooth="yes"/>
      <point x="1532" y="189"/>
      <point x="1569" y="236"/>
      <point x="1569" y="314" type="curve" smooth="yes"/>
      <point x="1569" y="638" type="line" smooth="yes"/>
      <point x="1569" y="743"/>
      <point x="1480" y="794"/>
      <point x="1377" y="794" type="curve" smooth="yes"/>
      <point x="1262" y="794"/>
      <point x="1185" y="736"/>
    </contour>
    <contour>
      <point x="671" y="566" type="line"/>
      <point x="767" y="566"/>
      <point x="766" y="458"/>
      <point x="766" y="397" type="curve" smooth="yes"/>
      <point x="766" y="107" type="line" smooth="yes"/>
      <point x="766" y="49"/>
      <point x="825" y="0"/>
      <point x="888" y="0" type="curve"/>
      <point x="888" y="40" type="line"/>
      <point x="846" y="40"/>
      <point x="807" y="72"/>
      <point x="807" y="109" type="curve" smooth="yes"/>
      <point x="807" y="405" type="line" smooth="yes"/>
      <point x="807" y="507"/>
      <point x="783" y="606"/>
      <point x="671" y="606" type="curve"/>
    </contour>
    <contour>
      <point x="942" y="0" type="line"/>
      <point x="1052" y="0"/>
      <point x="1108" y="82"/>
      <point x="1108" y="167" type="curve" smooth="yes"/>
      <point x="1108" y="426" type="line" smooth="yes"/>
      <point x="1108" y="543"/>
      <point x="1055" y="597"/>
      <point x="935" y="596" type="curve"/>
      <point x="935" y="556" type="line"/>
      <point x="1060" y="556"/>
      <point x="1068" y="490"/>
      <point x="1068" y="424" type="curve"/>
      <point x="1068" y="167" type="line"/>
      <point x="1068" y="116"/>
      <point x="1039" y="40"/>
      <point x="942" y="40" type="curve"/>
    </contour>
    <contour>
      <point x="40" y="172" type="line" smooth="yes"/>
      <point x="40" y="88"/>
      <point x="104" y="0"/>
      <point x="192" y="0" type="curve" smooth="yes"/>
      <point x="192" y="40" type="line"/>
      <point x="142" y="40"/>
      <point x="79" y="91"/>
      <point x="79" y="181" type="curve" smooth="yes"/>
      <point x="79" y="295"/>
      <point x="155" y="319"/>
      <point x="192" y="319" type="curve" smooth="yes"/>
      <point x="192" y="359" type="line"/>
      <point x="116" y="359"/>
      <point x="40" y="300"/>
      <point x="40" y="196" type="curve" smooth="yes"/>
    </contour>
    <contour>
      <point x="247" y="0" type="line"/>
      <point x="319" y="0"/>
      <point x="384" y="75"/>
      <point x="383" y="173" type="curve" smooth="yes"/>
      <point x="383" y="196" type="line" smooth="yes"/>
      <point x="383" y="292"/>
      <point x="320" y="359"/>
      <point x="247" y="359" type="curve" smooth="yes"/>
      <point x="247" y="319" type="line"/>
      <point x="289" y="319"/>
      <point x="341" y="282"/>
      <point x="341" y="183" type="curve" smooth="yes"/>
      <point x="341" y="88"/>
      <point x="291" y="40"/>
      <point x="247" y="40" type="curve"/>
    </contour>
    <contour>
      <point x="317" y="565" type="line"/>
      <point x="430" y="565"/>
      <point x="480" y="472"/>
      <point x="480" y="354" type="curve"/>
      <point x="480" y="0" type="line"/>
      <point x="520" y="0" type="line"/>
      <point x="520" y="355" type="line"/>
      <point x="520" y="454"/>
      <point x="479" y="605"/>
      <point x="317" y="605" type="curve"/>
    </contour>
    <contour>
      <point x="40" y="204" type="line"/>
      <point x="80" y="306" type="line" smooth="yes"/>
      <point x="82" y="443"/>
      <point x="149" y="565"/>
      <point x="263" y="565" type="curve"/>
      <point x="263" y="605" type="line"/>
      <point x="125" y="605"/>
      <point x="40" y="469"/>
      <point x="40" y="302" type="curve"/>
    </contour>
    <contour>
      <point x="480" y="325" type="curve"/>
      <point x="520" y="326" type="line"/>
      <point x="520" y="454"/>
      <point x="533" y="565"/>
      <point x="617" y="565" type="curve"/>
      <point x="617" y="605" type="line"/>
      <point x="486" y="605"/>
      <point x="480" y="440"/>
    </contour>
  </outline>
</glyph>
<glyph name="tml_TUu" format="1">
  <advance width="1193"/>
  <outline>
    <contour>
      <point x="990" y="-90" type="line"/>
      <point x="1030" y="-90" type="line"/>
      <point x="1030" y="593" type="line"/>
      <point x="990" y="593" type="line"/>
    </contour>
    <contour>
      <point x="895" y="555" type="line"/>
      <point x="1114" y="555" type="line"/>
      <point x="1114" y="595" type="line"/>
      <point x="895" y="595" type="line"/>
    </contour>
    <contour>
      <point x="706" y="555" type="line"/>
      <point x="841" y="555" type="line"/>
      <point x="841" y="595" type="line"/>
      <point x="706" y="595" type="line"/>
    </contour>
    <component base="tml_TU" xOffset="-38"/>
  </outline>
</glyph>
<glyph name="tml_VUu" format="1">
  <advance width="944"/>
  <outline>
    <contour>
      <point x="446" y="-245" type="line"/>
      <point x="446" y="-205" type="line"/>
      <point x="163" y="-205" type="line" smooth="yes"/>
      <point x="122" y="-205"/>
      <point x="106" y="-189"/>
      <point x="106" y="-139" type="curve" smooth="yes"/>
      <point x="106" y="-88"/>
      <point x="151" y="-79"/>
      <point x="167" y="-79" type="curve"/>
      <point x="183" y="-79"/>
      <point x="226" y="-84"/>
      <point x="226" y="-142" type="curve" smooth="yes"/>
      <point x="267" y="-142" type="line" smooth="yes"/>
      <point x="267" y="-136" type="line" smooth="yes"/>
      <point x="267" y="-78"/>
      <point x="225" y="-39"/>
      <point x="167" y="-39" type="curve"/>
      <point x="112" y="-39"/>
      <point x="66" y="-78"/>
      <point x="66" y="-140" type="curve" smooth="yes"/>
      <point x="66" y="-145" type="line" smooth="yes"/>
      <point x="66" y="-222"/>
      <point x="108" y="-245"/>
      <point x="159" y="-245" type="curve" smooth="yes"/>
    </contour>
    <contour>
      <point x="499" y="-205" type="line" smooth="yes"/>
      <point x="499" y="-245" type="line"/>
      <point x="845" y="-245" type="line" smooth="yes"/>
      <point x="881" y="-245"/>
      <point x="903" y="-225"/>
      <point x="903" y="-180" type="curve" smooth="yes"/>
      <point x="903" y="-7" type="line" smooth="yes"/>
      <point x="903" y="26"/>
      <point x="887" y="38"/>
      <point x="840" y="38" type="curve" smooth="yes"/>
      <point x="757" y="38" type="line"/>
      <point x="757" y="-2" type="line" smooth="yes"/>
      <point x="863" y="-2" type="line" smooth="yes"/>
      <point x="863" y="-205" type="line" smooth="yes"/>
    </contour>
    <contour>
      <point x="731" y="-143" type="line"/>
      <point x="773" y="-143" type="line"/>
      <point x="773" y="155" type="line"/>
      <point x="759" y="154"/>
      <point x="745" y="181"/>
      <point x="731" y="155" type="curve"/>
    </contour>
    <component base="tml_Va" xOffset="19"/>
  </outline>
</glyph>
<glyph name="tml_YU" format="1">
  <advance width="670"/>
  <outline>
    <contour>
      <point x="577" y="168" type="line"/>
      <point x="577" y="-199" type="line"/>
      <point x="617" y="-199" type="line"/>
      <point x="617" y="168" type="line"/>
    </contour>
    <component base="tml_Ya" xOffset="12"/>
  </outline>
</glyph>
